<svg id="book" xmlns="http://www.w3.org/2000/svg" width="50" height="50" viewBox="0 0 50 50">
  <path id="路径_31" data-name="路径 31" d="M50,35.939a14.056,14.056,0,0,0-9.372-13.245V6.25H37.5V3.123h3.125V0H4.69A5.287,5.287,0,0,0,2.43.553,4.412,4.412,0,0,0,0,4.687c0,.009,0,.019,0,.028V46.875A3.061,3.061,0,0,0,3.127,50H36.066l-.011-.006A14.055,14.055,0,0,0,50,35.939ZM4.457,6.22a1.967,1.967,0,0,1-.9-.372c-.216-.209-.4-.38-.425-1.161.052-1.009.3-1.072.7-1.337a2.308,2.308,0,0,1,.631-.2c.183-.034.23-.022.233-.031H34.377V6.25H4.69A1.238,1.238,0,0,1,4.457,6.22ZM6.249,46.875V9.375H37.5V21.969A13.9,13.9,0,0,0,27.1,25H9.374v3.125H24.243a13.992,13.992,0,0,0-1.555,3.125H9.374v3.125H21.963a14.347,14.347,0,0,0-.092,1.564A14.024,14.024,0,0,0,27.1,46.875Zm29.688,0A10.937,10.937,0,1,1,46.874,35.939,10.953,10.953,0,0,1,35.936,46.875ZM34.374,18.75h-25v3.125h25Z" transform="translate(0.001)" fill="#257fb6"/>
  <path id="路径_32" data-name="路径 32" d="M391.57,383.892v-3.841h-3.192a6.621,6.621,0,0,0-.47-1.163l2.278-2.278-2.718-2.716-2.236,2.238a6.579,6.579,0,0,0-1.338-.564v-3.192h-3.839v3.19a6.462,6.462,0,0,0-1.252.518l-2.19-2.188-2.716,2.716,2.188,2.188a6.652,6.652,0,0,0-.52,1.253h-3.19v3.839h3.19a6.509,6.509,0,0,0,.566,1.34l-2.236,2.232,2.712,2.718,2.28-2.278a6.449,6.449,0,0,0,1.161.47v3.2h3.843v-3.2a6.442,6.442,0,0,0,1.25-.518l2.326,2.326,2.714-2.718-2.326-2.323a6.75,6.75,0,0,0,.518-1.25Zm-9.6.958a2.88,2.88,0,1,1,2.879-2.879A2.886,2.886,0,0,1,381.971,384.85Z" transform="translate(-346.133 -346.375)" fill="#5a9c0b"/>
</svg>
