<svg xmlns="http://www.w3.org/2000/svg" width="51.847" height="56" viewBox="0 0 51.847 56">
  <g id="committee" transform="translate(-395.258 -82.049)">
    <g id="组_411" data-name="组 411" transform="translate(-106.323 -148.904)">
      <path id="路径_264" data-name="路径 264" d="M501.581,291.669s11.942-.088,23.575-.088c15.543,0,23.576.088,23.576.088s-2.6-16.359-3.429-18.364l-11.719-4.173-4.769,16.089-2.271-11.472,2.112-4.617h-7l2.112,4.617L521.5,285.222l-4.769-16.089-11.718,4.173C504.179,275.31,501.581,291.669,501.581,291.669Z" transform="translate(0 -4.716)" fill="#007dc6"/>
      <path id="路径_265" data-name="路径 265" d="M511.59,247.234l.511,4.281c.164,1.373,1.789,2.313,3.625,2.1l.186-.021-1.044-8.737c-.018-.265-.027-.525-.027-.782a11.722,11.722,0,1,1,23.436,0c0,.26-.01.524-.03.793l-.954,8-3.392,4.567a1.5,1.5,0,0,0-1.7.415l-2.953,3.5a1.445,1.445,0,0,0,.2,2.061,1.509,1.509,0,0,0,2.1-.193l2.953-3.494a1.443,1.443,0,0,0,.19-1.574l3.342-4.5c1.564-.041,2.85-.916,2.995-2.128l.51-4.281a2.734,2.734,0,0,0-2.165-2.676c.006-.161.015-.323.015-.481a12.823,12.823,0,1,0-25.639,0c0,.158.01.321.015.481A2.735,2.735,0,0,0,511.59,247.234Z" transform="translate(-1.403)" fill="#007dc6"/>
      <path id="路径_266" data-name="路径 266" d="M532.208,258.114a1.932,1.932,0,0,1,1.49-.7,2.038,2.038,0,0,1,.326.03,11.547,11.547,0,0,0,1.893-3.612c1.163-3.623,1.109-11.584.323-13.746a2.1,2.1,0,0,0-1.725-1.594c-1.708-2.609-4.147-2.972-5.857-3.247-7.441-1.2-8.752,3.053-8.752,3.053s0,0,0,.005h0V238.3s-1.516-.344-2.262,1.852c-.811,2.395-1.231,8.736.564,13.842,1.291,3.672,4.784,6.973,8.869,6.973a8.388,8.388,0,0,0,3.341-.7Z" transform="translate(-1.89 -0.573)" fill="#7db33d"/>
    </g>
    <g id="logo" transform="translate(420.063 110.29)">
      <path id="路径_34" data-name="路径 34" d="M79.461,738.156A13.521,13.521,0,1,1,65.94,724.635,13.521,13.521,0,0,1,79.461,738.156Z" transform="translate(-52.419 -724.634)" fill="#fff"/>
      <g id="组_23" data-name="组 23" transform="translate(1.238 13.205)">
        <path id="路径_35" data-name="路径 35" d="M80.8,771.118a13.331,13.331,0,0,1-24.538.158H66.881l3.724-5.482s.2-.343.442-.049,4.468,5.44,4.468,5.44l5.288-.066" transform="translate(-56.264 -765.625)" fill="#7db33d"/>
        <path id="路径_36" data-name="路径 36" d="M80.8,771.118a13.331,13.331,0,0,1-24.538.158H66.881l3.724-5.482s.2-.343.442-.049,4.468,5.44,4.468,5.44l5.288-.066" transform="translate(-56.264 -765.625)" fill="#7db33d" stroke="#85c538" stroke-width="0.311"/>
      </g>
      <path id="路径_37" data-name="路径 37" d="M79.334,741.021a13.326,13.326,0,1,0-26.452-2.3q0,.245.009.49h4.646l5.291-8.034s.2-.589.784-.1a11.18,11.18,0,0,1,1.225,1.274L59.3,740.481H52.883l.146.882h6.712l8.279-12.346a.494.494,0,0,1,.882-.1c.539.588,9.112,12.15,9.112,12.15Z" transform="translate(-52.733 -725.149)" fill="#007dc6"/>
      <path id="路径_38" data-name="路径 38" d="M79.334,741.021a13.326,13.326,0,1,0-26.452-2.3q0,.245.009.49h4.646l5.291-8.034s.2-.589.784-.1a11.18,11.18,0,0,1,1.225,1.274L59.3,740.481H52.883l.146.882h6.712l8.279-12.346a.494.494,0,0,1,.882-.1c.539.588,9.112,12.15,9.112,12.15Z" transform="translate(-52.733 -725.149)" fill="none" stroke="#338bbc" stroke-width="0.311"/>
      <g id="组_24" data-name="组 24" transform="translate(0.59 7.874)">
        <path id="路径_39" data-name="路径 39" d="M54.251,758.25H63.02l5.974-9.014s.294-.392.685.049,7.1,8.769,7.1,8.769l.225.225h3.058l-.2.56H76.688l-7.153-8.574s-.2-.392-.49.1-5.478,8.477-5.478,8.477H54.457Z" transform="translate(-54.251 -749.075)" fill="#7db33d"/>
        <path id="路径_40" data-name="路径 40" d="M54.251,758.25H63.02l5.974-9.014s.294-.392.685.049,7.1,8.769,7.1,8.769l.225.225h3.058l-.2.56H76.688l-7.153-8.574s-.2-.392-.49.1-5.478,8.477-5.478,8.477H54.457Z" transform="translate(-54.251 -749.075)" fill="#7db33d" stroke="#85c538" stroke-width="0.311"/>
      </g>
    </g>
  </g>
</svg>
