<svg xmlns="http://www.w3.org/2000/svg" width="28.724" height="32" viewBox="0 0 28.724 32">
  <path id="customer" d="M152.211,265.174l-1.382-1.9v-.734l5.916.607-1.186-.725a2.831,2.831,0,0,1-.854-.814c.222.01.494.008.845-.007l.681-.028-.462-.5a7.36,7.36,0,0,1-1.939-3.179A3,3,0,0,0,155,255.844a2.967,2.967,0,0,0-.909-2.544c.331-3.09-.273-5.638-1.775-7.41a8.91,8.91,0,0,0-12.666.017c-1.509,1.779-2.119,4.321-1.793,7.391a2.967,2.967,0,0,0-.91,2.546,3,3,0,0,0,1.2,2.079,7.887,7.887,0,0,1-1.974,3.154l-.462.5.681.028c.351.014.623.016.845.007a2.826,2.826,0,0,1-.854.814l-1.187.725,5.917-.607v.734l-1.382,1.9a10.036,10.036,0,0,0-8.1,9.766v.316h28.724v-.316A10.059,10.059,0,0,0,152.211,265.174Zm-6.242,6.335a.9.9,0,1,1,.9-.9A.9.9,0,0,1,145.969,271.509Zm.9,1.793a.9.9,0,1,1-.9-.9A.9.9,0,0,1,146.865,273.3Zm-2.76-7.53-.3-.316-.3-.314-1.772-1.887V262c.052.048.111.093.165.14.109.1.219.191.333.283a11.847,11.847,0,0,0,1.607,1.092,4.636,4.636,0,0,0,4.248,0,11.87,11.87,0,0,0,1.606-1.092c.115-.092.224-.187.333-.283.053-.048.112-.092.165-.14v1.251l-1.775,1.889-.292.312-.3.316-1.864,1.984Zm7.3-.626.226.31.033.045-.107.27-1.247,3.167a1.337,1.337,0,0,1-1.217.945,1.541,1.541,0,0,1-.938-.357l-1.373-1.073-.339-.264c-.011-.009.331-.374.331-.374l1.921-2.044.3-.316.292-.311.826-.879.368-.392.272.373Zm-.9-4.386c-.1.121-.207.239-.316.355a8.645,8.645,0,0,1-.7.658c-.112.095-.222.191-.34.283s-.255.186-.385.278c-.313.219-.638.433-1,.637a4.011,4.011,0,0,1-3.624,0c-.358-.2-.684-.418-1-.637-.13-.092-.262-.183-.385-.278s-.228-.188-.34-.283a8.659,8.659,0,0,1-.646-.609,8.373,8.373,0,0,0,2.4.692.857.857,0,0,0,.806.571h1.087a.859.859,0,1,0,0-1.718H145a.857.857,0,0,0-.779.5,6.914,6.914,0,0,1-3.538-1.511,7.806,7.806,0,0,1-.637-1.4l-.182-.417a.616.616,0,0,0,0-.112l-.376-3.15c.075-.46.164-.94.178-1.124a9.054,9.054,0,0,1,.364-1.728,4.267,4.267,0,0,1,.879-1.439c1-1.061,2.592-1.623,4.86-1.716a5.034,5.034,0,0,0,.577.918,3.768,3.768,0,0,0,2.334,1.338c.18.039.358.072.533.1,1.116.2,2.046.38,2.536,1.988a8.163,8.163,0,0,1,.293,1.584l.043.441.053.542.088.9-.115.958-.225.915a7.687,7.687,0,0,1-1.063,2.062C150.73,260.5,150.622,260.63,150.513,260.76Zm-10.378-14.438a8.277,8.277,0,0,1,11.686-.017,8.443,8.443,0,0,1,1.694,5.929c-.591-6.573-4.485-7.747-7.554-8.015a6.98,6.98,0,0,0-5.129,2.023c-1.422,1.478-2.215,3.707-2.371,6.641A8.755,8.755,0,0,1,140.135,246.322Zm.168,19.134.23-.315.651-.893.266-.365c.006-.008.374.384.374.384l.823.875.3.315.3.316,1.921,2.044.343.366-.35.273-1.374,1.072a1.54,1.54,0,0,1-.939.357,1.337,1.337,0,0,1-1.217-.945l-1.247-3.167-.106-.27Z" transform="translate(-131.627 -243.256)"/>
</svg>
