<svg xmlns="http://www.w3.org/2000/svg" width="31.421" height="32" viewBox="0 0 31.421 32">
  <g id="earth" transform="translate(-134.79 -359.291)">
    <path id="路径_183" data-name="路径 183" d="M169.857,396.321l-.383.384-2.378-2.378a5.646,5.646,0,1,0-1.523,1.49l2.394,2.394-.3.3,4.3,4.3a1.546,1.546,0,0,0,2.186-2.186Zm-7.4-.708a4.5,4.5,0,1,1,4.5-4.5A4.5,4.5,0,0,1,162.461,395.613Z" transform="translate(-9.847 -11.965)"/>
    <path id="路径_184" data-name="路径 184" d="M154.5,389.3a10.8,10.8,0,0,0,2.32-2.479l-.615-.616c-1.424,2.114-3.252,3.456-5.258,3.628v-4.676a6.517,6.517,0,0,1-.884-.188v4.865c-2.867-.246-5.371-2.872-6.849-6.737h3.812a6.738,6.738,0,0,1-.7-.885h-3.425a23.136,23.136,0,0,1-1.089-6.756h4.164a6.747,6.747,0,0,1,.554-.885H141.8a23.148,23.148,0,0,1,1.09-6.756h7.163V372.1a6.68,6.68,0,0,1,.884-.188v-4.1h7.164a23.163,23.163,0,0,1,1.089,6.756h-1.9a6.7,6.7,0,0,1,.554.885h1.343a23.205,23.205,0,0,1-1.078,6.718l.923.923h.491l.158-.159.158.159h3.077a14.884,14.884,0,0,1-1.334,1.746l.629.629a15.7,15.7,0,1,0-3.7,3.056l-.65-.65A14.7,14.7,0,0,1,154.5,389.3Zm8.963-7.089h-4.442a23.919,23.919,0,0,0,1.061-6.756h5.237A14.735,14.735,0,0,1,163.459,382.214Zm1.856-7.641h-5.237a23.919,23.919,0,0,0-1.061-6.756h4.442A14.724,14.724,0,0,1,165.316,374.574Zm-2.391-7.641h-4.206a13.535,13.535,0,0,0-4.223-6.2A14.88,14.88,0,0,1,162.924,366.932Zm-11.982-6.738c2.867.246,5.371,2.872,6.849,6.738h-6.849Zm-.884,6.738h-6.849c1.478-3.866,3.983-6.492,6.849-6.739Zm-3.554-6.2a13.548,13.548,0,0,0-4.223,6.2h-4.205A14.883,14.883,0,0,1,146.5,360.728Zm-8.964,7.09h4.443a23.917,23.917,0,0,0-1.061,6.756h-5.236A14.738,14.738,0,0,1,137.54,367.818Zm-1.855,7.641h5.237a23.917,23.917,0,0,0,1.06,6.756H137.54A14.743,14.743,0,0,1,135.685,375.459Zm2.391,7.641h4.205a13.547,13.547,0,0,0,4.223,6.2A14.878,14.878,0,0,1,138.076,383.1Z" transform="translate(0 0)"/>
  </g>
</svg>
