<svg xmlns="http://www.w3.org/2000/svg" width="126" height="126" viewBox="0 0 126 126">
    <g fill="none" fill-rule="evenodd">
        <circle cx="63" cy="63" r="63"/>
        <path fill="#E9B28A" d="M26.485 82.809l1.09-2.433v-6.605c0-2.216.707-4.371 2.02-6.155l7.136-9.7 8.155-5.438 2.079 18.456-1.364 10.289-6.407 6.98-12.71-5.394z"/>
        <path fill="#D9D9D9" d="M88.52 37.109H40.94c-3.07 0-5.581 2.51-5.581 5.579v32.57c0 3.068 2.51 5.579 5.58 5.579h47.582c3.068 0 5.58-2.511 5.58-5.58v-32.57c0-3.068-2.512-5.578-5.58-5.578"/>
        <path fill="#17374F" d="M40.046 41.2h-.352v35.546h48.258V41.2z"/>
        <path fill="#CFD8DC" d="M93.055 58.972a2.073 2.073 0 1 1-4.145 0 2.073 2.073 0 0 1 4.145 0"/>
        <path fill="#FFF" d="M39.512 58.972a1.674 1.674 0 1 1-3.349.002 1.674 1.674 0 0 1 3.35-.002"/>
        <path fill="#F5F5F5" d="M45.758 71.328h7.651V57.407h-7.65z"/>
        <path fill="#E46E60" d="M54.922 71.328h7.651v-21.21h-7.65z"/>
        <path fill="#5FB7D3" d="M64.088 71.328h7.65V43.375h-7.65z"/>
        <path fill="#E5DC69" d="M73.254 71.328h7.65V55.352h-7.65z"/>
        <path fill="#E9B28A" d="M49.05 68.81c-.003.022-.003.044-.003.067 0 .064-.004.131-.013.197a1.975 1.975 0 0 1-.405.953 2.407 2.407 0 0 1-1.665.908h-5.875l-2.211 9.013.636 3.434 2.138-.43-6.067 2.576-4.433-5.295 2.717-14.593h5.009l5.571.929.643.109 3.213.536c.073.066.736.694.744 1.596"/>
        <path fill="#FFF" d="M24.856 84.382l1.628-3.545 13.21 7.365-2.19 4.083z"/>
        <path fill="#17374F" d="M33.72 87.896l-2.268 4.42c-3.384-1.975-6.878-3.937-9.452-5.303l2.507-4.266 9.214 5.149z"/>
        <path fill="#17374F" d="M39.256 90.992l-2.268 4.621a269.627 269.627 0 0 0-5.536-3.298l2.268-4.42 5.536 3.097z"/>
        <path fill="#F1C3A4" d="M49.05 68.81c-.003.022-.003.044-.003.067l-.01.118a2.098 2.098 0 0 1-.285.83c-.583-.05-1.198-.118-1.475-.208-2.771-.895-2.351-2.511-2.185-2.94l3.213.537c.073.066.736.694.744 1.596"/>
        <path fill="#E6AF87" d="M88.57 89.054c-.09.073-.432.057-.54.071l-1.044.135c-1.06.138-.86.52-1.917.657-2.188.283-4.412.218-6.589.554-1.981.306-2.986-1.01-4.276-2.447-2.114-2.353-5.32-4.473-6.363-7.55-.412-1.216-.984-2.573-1.17-3.836-.16-1.06-.107-2.085-.432-3.142-.308-1-1.475-2.864.295-2.808.448.015 1.192.113 1.588.349.727.437 1.337 1.441 1.614 2.234.224.643.133 1.318.358 1.95.284.8.877 1.595 1.382 2.267-.007-2.19-.24-4.002-.591-6.16l-.688-5.285-.982-7.527a.653.653 0 0 1-.005-.045c-.061-.478-.172-.978-.187-1.458a.838.838 0 0 1 .177-.508c.028-.04.056-.082.091-.12.003-.006.01-.01.013-.015.076-.084.157-.17.236-.242a2.342 2.342 0 0 1 2.67-.37c.099.047.194.1.282.157l.017.011c.113.075.213.159.294.257.094.115.161.25.187.412.042.27.067.533.106.805.221 1.717.429 3.438.646 5.155.148 1.173.24 2.37.45 3.533.19 1.042.476 2.717.875 3.107-.054-.267.088-.69.044-1.01-.047-.34-.097-.678-.143-1.019-.079-.598-.308-1.406-.16-2.006.271-1.059 1.908-1.475 2.803-1.03.938.468 1.089 1.74 1.313 2.638.066.264.497 1.239.616.811.23-.817.18-2.32.475-2.8.554-.905 1.807-1.028 2.68-.55 1.271.697 1.286 2.753 1.432 4 .22-.224.117-1.143.317-1.422.295-.411.9-.68 1.392-.714 2.077-.135 2.003 2.36 2.33 3.783.59 2.561.912 5.183.962 7.809.024 1.257.077 2.615-.102 3.862-.159 1.1-.884 2.064-.937 3.189-.046.93.232 1.967.349 2.889.063.483.112.88.134 1.046.02.145.085.31-.003.383"/>
        <path fill="#F1C3A4" d="M71.802 59.374c-.863.243-1.745-.52-1.967-1.692l-.18-.98a2.711 2.711 0 0 1-.033-.248c.075-.084.156-.17.236-.24a2.34 2.34 0 0 1 2.67-.371c.097.046.193.099.28.157l.017.01.144.784c.217 1.176-.309 2.335-1.167 2.58"/>
        <path fill="#FFF" d="M88.695 86.697L74.38 88.608l.966 3.78 14.06-2.354z"/>
        <path fill="#17374F" d="M92.05 94.345l-12.027 2.292-1.264-5.413 11.784-2.139zM80.023 96.638l-4.954.944-1.342-5.451 5.032-.907z"/>
        <path fill="#E46E60" d="M46.471 51.815a1.138 1.138 0 0 1-.942-1.777l10.249-15.13a1.138 1.138 0 0 1 1.748-.166L68.21 45.427l11.936-19.741a1.139 1.139 0 0 1 1.949 1.178L69.408 47.85a1.145 1.145 0 0 1-.838.541 1.143 1.143 0 0 1-.942-.326L56.89 37.327l-9.475 13.988c-.221.325-.58.5-.944.5"/>
        <path fill="#E46E60" d="M49.888 51.164a3.416 3.416 0 1 1-6.832 0 3.416 3.416 0 0 1 6.832 0M60.092 36.503a3.417 3.417 0 1 1-6.833 0 3.417 3.417 0 0 1 6.833 0M71.48 46.59a3.416 3.416 0 1 1-6.832 0 3.416 3.416 0 0 1 6.832 0M84.169 26.416a3.415 3.415 0 1 1-6.832 0 3.417 3.417 0 0 1 6.832 0"/>
    </g>
</svg>
