<svg xmlns="http://www.w3.org/2000/svg" width="126" height="126" viewBox="0 0 126 126">
    <g fill="none" fill-rule="evenodd">
        <circle cx="63" cy="63" r="63"/>
        <path fill="#FFF" d="M39.524 34.158l7.202 4.158v-3.069h37.177v13.78a1.117 1.117 0 1 0 2.234 0V34.131c0-.617-.5-1.117-1.118-1.117H46.726V30l-7.202 4.158z"/>
        <path fill="#E46E60" d="M94.273 66.97v8.353c0 3.173-4.261 5.855-10.123 6.713-1.273.193-2.623.29-4.02.29-1.908 0-3.72-.184-5.38-.521-5.138-1.052-8.753-3.56-8.753-6.482V66.97c0 2.922 3.615 5.42 8.754 6.472 1.658.337 3.471.52 5.38.52 1.396 0 2.746-.095 4.02-.289 5.86-.848 10.122-3.53 10.122-6.703"/>
        <path fill="#D5584A" d="M80.133 59.968c-7.807 0-14.14 3.134-14.14 6.998 0 3.867 6.333 7 14.14 7 7.811 0 14.143-3.133 14.143-7 0-3.864-6.332-6.998-14.143-6.998"/>
        <path fill="#E46E60" d="M94.273 55.867v8.363c0 3.173-4.261 5.855-10.123 6.703a26.81 26.81 0 0 1-4.02.291c-1.908 0-3.72-.184-5.38-.522-5.138-1.051-8.753-3.549-8.753-6.472v-8.363c0 2.922 3.615 5.431 8.754 6.482 1.658.338 3.471.52 5.38.52 1.396 0 2.746-.095 4.02-.288 5.86-.859 10.122-3.54 10.122-6.714"/>
        <path fill="#D5584A" d="M80.133 48.869c-7.807 0-14.14 3.134-14.14 6.998 0 3.866 6.333 7 14.14 7 7.811 0 14.143-3.134 14.143-7 0-3.864-6.332-6.998-14.143-6.998"/>
        <path fill="#E46E60" d="M94.273 44.765v8.363c0 3.173-4.261 5.854-10.123 6.713-1.273.193-2.623.29-4.02.29-1.908 0-3.72-.183-5.38-.522-5.138-1.05-8.753-3.558-8.753-6.481v-8.363c0 2.923 3.615 5.43 8.754 6.483 1.658.336 3.471.52 5.38.52 1.396 0 2.746-.097 4.02-.29 5.86-.858 10.122-3.54 10.122-6.713"/>
        <path fill="#D5584A" d="M80.133 37.77c-7.807 0-14.14 3.133-14.14 6.998 0 3.867 6.333 7 14.14 7 7.811 0 14.143-3.133 14.143-7 0-3.865-6.332-6.999-14.143-6.999"/>
        <path fill="#D5584A" d="M80.134 40.037c-5.28 0-9.56 2.118-9.56 4.732 0 2.614 4.28 4.733 9.56 4.733 5.282 0 9.562-2.119 9.562-4.733 0-2.614-4.28-4.732-9.562-4.732"/>
        <path fill="#E46E60" d="M84.15 51.478v8.363c-1.273.193-2.622.29-4.019.29-1.909 0-3.722-.183-5.38-.521v-8.363c1.658.338 3.471.52 5.38.52 1.397 0 2.746-.095 4.02-.289M84.15 62.58v8.354c-1.273.193-2.622.29-4.019.29-1.909 0-3.722-.185-5.38-.522v-8.353c1.658.338 3.471.52 5.38.52 1.397 0 2.746-.094 4.02-.288M80.13 73.963c1.397 0 2.747-.097 4.02-.29v8.363a26.956 26.956 0 0 1-4.02.289c-1.908 0-3.72-.182-5.38-.52v-8.363c1.66.337 3.472.521 5.38.521"/>
        <path fill="#5FB7D3" d="M60.28 66.97v8.353c0 3.173-4.262 5.855-10.123 6.713-1.272.193-2.623.29-4.02.29-1.909 0-3.722-.184-5.38-.521-5.137-1.052-8.754-3.56-8.754-6.482V66.97c0 2.922 3.617 5.42 8.754 6.472 1.658.337 3.471.52 5.38.52 1.397 0 2.748-.095 4.02-.289 5.86-.848 10.122-3.53 10.122-6.703"/>
        <path fill="#3386A0" d="M46.139 59.968C38.332 59.968 32 63.102 32 66.966c0 3.867 6.332 7 14.139 7 7.811 0 14.143-3.133 14.143-7 0-3.864-6.332-6.998-14.143-6.998"/>
        <path fill="#5FB7D3" d="M60.28 55.867v8.363c0 3.173-4.262 5.855-10.123 6.703a26.8 26.8 0 0 1-4.02.291c-1.909 0-3.722-.184-5.38-.522-5.137-1.051-8.754-3.549-8.754-6.472v-8.363c0 2.922 3.617 5.431 8.754 6.482 1.658.338 3.471.52 5.38.52 1.397 0 2.748-.095 4.02-.288 5.86-.859 10.122-3.54 10.122-6.714"/>
        <path fill="#3386A0" d="M46.139 48.869C38.332 48.869 32 52.003 32 55.867c0 3.866 6.332 7 14.139 7 7.811 0 14.143-3.134 14.143-7 0-3.864-6.332-6.998-14.143-6.998"/>
        <path fill="#5FB7D3" d="M60.28 44.765v8.363c0 3.173-4.262 5.854-10.123 6.713-1.272.193-2.623.29-4.02.29-1.909 0-3.722-.183-5.38-.522-5.137-1.05-8.754-3.558-8.754-6.481v-8.363c0 2.923 3.617 5.43 8.754 6.483 1.658.336 3.471.52 5.38.52 1.397 0 2.748-.097 4.02-.29 5.86-.858 10.122-3.54 10.122-6.713"/>
        <path fill="#3386A0" d="M46.139 37.77C38.332 37.77 32 40.902 32 44.767c0 3.867 6.332 7 14.139 7 7.811 0 14.143-3.133 14.143-7 0-3.865-6.332-6.999-14.143-6.999"/>
        <path fill="#3386A0" d="M46.14 40.037c-5.279 0-9.56 2.118-9.56 4.732 0 2.614 4.281 4.733 9.56 4.733 5.282 0 9.564-2.119 9.564-4.733 0-2.614-4.282-4.732-9.564-4.732"/>
        <path fill="#5FB7D3" d="M50.157 51.478v8.363c-1.272.193-2.623.29-4.02.29-1.908 0-3.721-.183-5.38-.521v-8.363c1.659.338 3.472.52 5.38.52 1.397 0 2.748-.095 4.02-.289M50.157 62.58v8.354c-1.272.193-2.623.29-4.02.29-1.908 0-3.721-.185-5.38-.522v-8.353c1.659.338 3.472.52 5.38.52 1.397 0 2.748-.094 4.02-.288M46.137 73.963c1.396 0 2.747-.097 4.02-.29v8.363a26.946 26.946 0 0 1-4.02.289c-1.909 0-3.722-.182-5.38-.52v-8.363c1.658.337 3.471.521 5.38.521"/>
        <path fill="#E5DC69" d="M78.098 77.917v8.353c0 3.173-4.26 5.855-10.122 6.713-1.272.193-2.622.29-4.02.29-1.908 0-3.72-.184-5.379-.521-5.138-1.052-8.754-3.559-8.754-6.482v-8.353c0 2.922 3.616 5.42 8.754 6.472 1.659.336 3.47.52 5.38.52 1.397 0 2.747-.095 4.019-.29 5.861-.848 10.122-3.53 10.122-6.702"/>
        <path fill="#D3A556" d="M63.96 70.915c-7.808 0-14.14 3.134-14.14 6.998 0 3.866 6.332 7 14.14 7 7.81 0 14.142-3.134 14.142-7 0-3.864-6.331-6.998-14.143-6.998"/>
        <path fill="#E5DC69" d="M78.098 66.814v8.363c0 3.173-4.26 5.855-10.122 6.703-1.272.194-2.622.29-4.02.29-1.908 0-3.72-.184-5.379-.52-5.138-1.053-8.754-3.55-8.754-6.473v-8.363c0 2.923 3.616 5.431 8.754 6.482 1.659.337 3.47.52 5.38.52 1.397 0 2.747-.095 4.019-.288 5.861-.86 10.122-3.54 10.122-6.714"/>
        <path fill="#D3A556" d="M63.96 59.816c-7.808 0-14.14 3.134-14.14 6.998 0 3.866 6.332 7 14.14 7 7.81 0 14.142-3.134 14.142-7 0-3.864-6.331-6.998-14.143-6.998"/>
        <path fill="#E5DC69" d="M78.098 55.711v8.363c0 3.175-4.26 5.855-10.122 6.714-1.272.193-2.622.29-4.02.29-1.908 0-3.72-.183-5.379-.522-5.138-1.05-8.754-3.559-8.754-6.482v-8.363c0 2.924 3.616 5.432 8.754 6.483 1.659.337 3.47.52 5.38.52 1.397 0 2.747-.096 4.019-.289 5.861-.859 10.122-3.54 10.122-6.714"/>
        <path fill="#D3A556" d="M63.96 48.717c-7.808 0-14.14 3.134-14.14 6.998 0 3.867 6.332 7 14.14 7 7.81 0 14.142-3.133 14.142-7 0-3.864-6.331-6.998-14.143-6.998"/>
        <path fill="#D3A556" d="M63.96 50.983c-5.28 0-9.561 2.119-9.561 4.732 0 2.615 4.281 4.734 9.56 4.734 5.282 0 9.564-2.12 9.564-4.734 0-2.613-4.282-4.732-9.564-4.732"/>
        <path fill="#FFF" d="M91.638 88.256l-4.157-7.202-4.16 7.202h3.169v4.999H41.287v-11.53a1.123 1.123 0 1 0-2.245 0v12.653c0 .62.502 1.124 1.122 1.124h47.449c.62 0 1.122-.503 1.122-1.124v-6.122h2.903z"/>
    </g>
</svg>
