<svg xmlns="http://www.w3.org/2000/svg" width="126" height="126" viewBox="0 0 126 126">
    <g fill="none" fill-rule="evenodd">
        <circle cx="63" cy="63" r="63"/>
        <path fill="#D9D9D9" d="M88.532 32.975L87.8 71.848l-1.668 21.335-44.094-.136.072-23.169 4.134-37.848 31.282.488z"/>
        <path fill="#FFF" d="M40.478 33.92l-.183 59.617 46.312.144.183-59.618z"/>
        <path fill="#D3A659" d="M89.57 90.703l.049-16.101a6.236 6.236 0 0 0-3.792-5.757l.103-33.549-44.937-.139a1.813 1.813 0 0 0-1.243.49L87.117 96.72c1.922-1.075 2.444-3.59 2.452-6.017"/>
        <path fill="#D3A659" d="M87.12 96.718c-.129.07-.228.156-.372.213l-47.768-.147.185-59.805c.003-.529.232-1 .59-1.328l1.254 1.619L87.12 96.718z"/>
        <path fill="#FFF" d="M74.858 45.066l-.14 44.899 5.776.017.138-44.897z"/>
        <path fill="#D9D9D9" d="M78.872 71.798l.044-14.5-2.418-.006-.045 14.5zM76.443 75.253l-.042 13.418 2.419.007.04-13.418zM78.924 54.702l.023-7.358-2.417-.008-.024 7.359z"/>
        <path fill="#17374F" d="M65.895 43.947a6.74 6.74 0 0 1-.872.508 6.64 6.64 0 0 1-8.386-2.12 6.648 6.648 0 0 1 1.612-9.257c.262-.185.534-.339.811-.48 2.9-1.479 6.519-.65 8.444 2.091a6.644 6.644 0 0 1-1.609 9.258zm9.752-4.547l-.373-4.15-3.126-.247c-.234-.672-.54-1.33-.92-1.964l1.798-2.546-2.954-2.94-2.525 1.802c-.635-.38-1.305-.69-2-.929l-.255-3.072L61.14 25l-.768 2.979c-.729.117-1.449.31-2.151.58l-2.154-2.171-.098.07-3.311 2.328 1.322 2.77c-.49.571-.916 1.188-1.27 1.834l-3.048-.279-1.068 4.027 2.81 1.281c-.006.736.062 1.473.21 2.203l-2.535 1.757 1.77 3.771 3.008-.832c.47.568.992 1.08 1.551 1.527l-.82 3.006 3.781 1.753 1.785-2.596c.705.128 1.423.188 2.142.174l1.317 2.852 4.022-1.087-.154-1.606-.15-1.544c.299-.172.595-.358.882-.558.304-.215.59-.44.864-.676l2.853 1.346 2.381-3.42-2.255-2.217c.254-.67.435-1.366.55-2.07l3.041-.802z"/>
        <path fill="#5FB7D3" d="M51.979 68.961a8.29 8.29 0 0 1-1.057.616c-3.502 1.746-7.845.728-10.169-2.57a8.06 8.06 0 0 1 1.954-11.226c.317-.224.649-.41.986-.582 3.515-1.792 7.902-.787 10.238 2.536a8.057 8.057 0 0 1-1.952 11.226zm11.824-5.514l-.452-5.033-3.79-.298a12.831 12.831 0 0 0-1.115-2.382l2.18-3.088-3.582-3.564-3.06 2.183a13.066 13.066 0 0 0-2.426-1.124l-.31-3.726-5.035-.43-.931 3.612c-.883.142-1.757.377-2.609.705l-2.611-2.633-.118.084-4.016 2.823 1.602 3.36a13.02 13.02 0 0 0-1.54 2.223l-3.696-.337L31 60.705l3.409 1.553c-.01.892.074 1.786.251 2.67l-3.072 2.13 2.148 4.575 3.645-1.01c.57.69 1.203 1.31 1.881 1.851l-.994 3.646 4.585 2.126 2.164-3.148c.855.154 1.727.227 2.599.21l1.597 3.46 4.876-1.318-.187-1.948-.182-1.873c.363-.208.722-.433 1.07-.676.367-.26.714-.533 1.047-.82l3.46 1.632 2.888-4.147-2.734-2.688c.307-.812.525-1.656.667-2.51l3.685-.973z"/>
    </g>
</svg>
