<svg xmlns="http://www.w3.org/2000/svg" width="126" height="126" viewBox="0 0 126 126">
    <g fill="none" fill-rule="evenodd">
        <circle cx="63" cy="63" r="63"/>
        <path fill="#E5DC69" d="M78.257 45.753a6.684 6.684 0 0 1-.863.503 6.574 6.574 0 0 1-8.3-2.098 6.58 6.58 0 0 1 1.594-9.162c.26-.182.53-.335.805-.475 2.87-1.464 6.45-.643 8.357 2.07a6.576 6.576 0 0 1-1.593 9.162zm9.652-4.5l-.37-4.11-3.095-.242c-.23-.667.96-3.314.586-3.94l.284-.523-2.923-2.91-2.5 1.782a10.518 10.518 0 0 0-1.978-.918l-.252-3.041-4.11-.351-.76 2.948c-.72.116-1.434.306-2.13.575l-2.131-2.149-.097.069-3.277 2.305 1.307 2.74a10.677 10.677 0 0 0-1.256 1.816l-3.017-.275-1.056 3.985 2.78 1.267c-.006.73.063 1.459.209 2.18l-2.51 1.74 1.753 3.732 2.976-.824a10.51 10.51 0 0 0 1.536 1.51l-.812 2.977 3.742 1.734 1.767-2.568c.698.127 1.408.186 2.12.172L76 53.757l3.98-1.077-.152-1.588-.15-1.53c.297-.17.59-.354.874-.55.299-.213.584-.436.855-.67l2.823 1.332 2.357-3.384-2.231-2.195c.252-.663.43-1.351.544-2.05l3.01-.792z"/>
        <path fill="#E46E60" d="M88.4 54.32a6.041 6.041 0 0 1-.765.446 5.834 5.834 0 0 1-7.366-1.861 5.84 5.84 0 0 1 1.415-8.131c.23-.162.47-.297.714-.421 2.547-1.3 5.723-.571 7.415 1.835A5.835 5.835 0 0 1 88.4 54.32zm8.565-3.994l-.33-3.646-2.744-.216a9.272 9.272 0 0 0-.808-1.724l1.58-2.237-2.595-2.582-2.217 1.582a9.45 9.45 0 0 0-1.756-.815l-.224-2.698-3.647-.311-.675 2.615a9.454 9.454 0 0 0-1.89.51l-1.89-1.906-.086.061-2.908 2.046 1.16 2.431a9.505 9.505 0 0 0-1.115 1.612l-2.677-.245-.938 3.537 2.469 1.124a9.25 9.25 0 0 0 .183 1.935l-2.226 1.543 1.555 3.312 2.642-.732c.414.5.871.95 1.362 1.341l-.72 2.642 3.32 1.538 1.567-2.279c.62.112 1.251.165 1.883.152l1.157 2.505 3.532-.955-.136-1.41-.132-1.356c.263-.15.522-.314.774-.49.266-.188.518-.385.76-.594L93.7 57.8l2.092-3.004-1.98-1.946a9.34 9.34 0 0 0 .482-1.818l2.67-.705z"/>
        <path fill="#D9D9D9" d="M31.326 45.75h1.747v11.073h-2.465v-9.324c-.272.17-.653.304-1.149.399-.494.094-.98.14-1.459.14v-.905a6.62 6.62 0 0 0 1.932-.433c.61-.239 1.074-.555 1.394-.95M42.394 48.48c0-1.074-.435-1.65-1.303-1.73a6.801 6.801 0 0 0-.587-.02c-.257 0-.502.026-.736.077-.236.05-.45.198-.647.446-.195.248-.293.653-.293 1.219v5.446c0 .998.236 1.593.706 1.785.24.1.528.151.868.151.339 0 .581-.01.724-.025.151-.008.315-.05.49-.126.52-.21.778-.807.778-1.791v-5.433zm-6.03.068c0-.98.292-1.714.88-2.198.585-.483 1.702-.725 3.349-.725 1.648 0 2.77.24 3.368.722.598.482.897 1.216.897 2.201v5.289c0 1.017-.288 1.791-.866 2.321-.58.532-1.708.796-3.387.796s-2.806-.262-3.38-.788c-.575-.526-.861-1.303-.861-2.33v-5.288zM53.342 48.48c0-1.074-.435-1.65-1.304-1.73a6.756 6.756 0 0 0-.585-.02c-.257 0-.502.026-.737.077-.235.05-.45.198-.647.446-.194.248-.293.653-.293 1.219v5.446c0 .998.236 1.593.707 1.785.24.1.528.151.868.151.337 0 .58-.01.723-.025.152-.008.314-.05.491-.126.52-.21.777-.807.777-1.791v-5.433zm-6.03.068c0-.98.293-1.714.88-2.198.586-.483 1.702-.725 3.35-.725 1.647 0 2.77.24 3.368.722.598.482.897 1.216.897 2.201v5.289c0 1.017-.29 1.791-.867 2.321-.579.532-1.707.796-3.386.796-1.68 0-2.806-.262-3.381-.788-.574-.526-.86-1.303-.86-2.33v-5.288zM60.94 45.75h1.748v11.073h-2.464v-9.324c-.272.17-.655.304-1.15.399-.494.094-.98.14-1.459.14v-.905a6.613 6.613 0 0 0 1.932-.433c.61-.239 1.074-.555 1.393-.95M72.008 48.48c0-1.074-.435-1.65-1.304-1.73a6.784 6.784 0 0 0-.587-.02c-.256 0-.5.026-.735.077-.236.05-.451.198-.647.446-.195.248-.294.653-.294 1.219v5.446c0 .998.237 1.593.707 1.785.24.1.529.151.867.151.339 0 .582-.01.724-.025.151-.008.315-.05.49-.126.52-.21.779-.807.779-1.791v-5.433zm-6.031.068c0-.98.294-1.714.881-2.198.584-.483 1.702-.725 3.349-.725 1.647 0 2.77.24 3.369.722.598.482.897 1.216.897 2.201v5.289c0 1.017-.29 1.791-.867 2.321-.58.532-1.708.796-3.388.796-1.678 0-2.805-.262-3.38-.788-.575-.526-.861-1.303-.861-2.33v-5.288zM82.956 48.48c0-1.074-.435-1.65-1.303-1.73a6.801 6.801 0 0 0-.587-.02c-.256 0-.501.026-.736.077-.236.05-.45.198-.647.446-.194.248-.293.653-.293 1.219v5.446c0 .998.236 1.593.706 1.785.24.1.528.151.868.151.339 0 .581-.01.724-.025.151-.008.314-.05.49-.126.52-.21.778-.807.778-1.791v-5.433zm-6.03.068c0-.98.293-1.714.88-2.198.585-.483 1.702-.725 3.35-.725 1.646 0 2.77.24 3.367.722.6.482.897 1.216.897 2.201v5.289c0 1.017-.288 1.791-.866 2.321-.579.532-1.708.796-3.387.796-1.678 0-2.806-.262-3.38-.788-.575-.526-.862-1.303-.862-2.33v-5.288zM35.85 63.715c0-1.073-.434-1.65-1.302-1.73a6.888 6.888 0 0 0-.587-.018c-.257 0-.502.025-.736.076-.236.049-.45.199-.647.446-.195.248-.293.653-.293 1.22v5.444c0 .998.236 1.593.706 1.787.24.1.528.15.868.15.338 0 .58-.009.724-.025.151-.009.315-.05.49-.125.52-.21.778-.809.778-1.793V63.715zm-6.03.068c0-.98.293-1.712.88-2.196.586-.485 1.703-.726 3.35-.726 1.648 0 2.77.24 3.368.722.598.482.897 1.216.897 2.2v5.289c0 1.018-.288 1.792-.866 2.323-.58.53-1.708.796-3.387.796s-2.806-.264-3.381-.79c-.574-.526-.86-1.303-.86-2.329v-5.289zM46.8 63.715c0-1.073-.436-1.65-1.305-1.73a6.87 6.87 0 0 0-.586-.018c-.256 0-.501.025-.736.076-.236.049-.45.199-.646.446-.195.248-.294.653-.294 1.22v5.444c0 .998.236 1.593.707 1.787.239.1.528.15.868.15.337 0 .58-.009.723-.025.152-.009.314-.05.491-.125.518-.21.777-.809.777-1.793V63.715zm-6.032.068c0-.98.294-1.712.881-2.196.586-.485 1.703-.726 3.35-.726 1.646 0 2.77.24 3.368.722.598.482.897 1.216.897 2.2v5.289c0 1.018-.29 1.792-.867 2.323-.579.53-1.707.796-3.387.796-1.678 0-2.805-.264-3.38-.79-.574-.526-.862-1.303-.862-2.329v-5.289zM54.397 60.985h1.748v11.073h-2.464v-9.324c-.272.172-.655.306-1.15.4-.495.093-.982.14-1.459.14v-.905a6.58 6.58 0 0 0 1.932-.434c.61-.238 1.073-.555 1.393-.95M62.115 60.985h1.747v11.073H61.4v-9.324c-.272.172-.655.306-1.15.4-.495.093-.982.14-1.459.14v-.905a6.58 6.58 0 0 0 1.931-.434c.61-.238 1.074-.555 1.394-.95M73.182 63.715c0-1.073-.435-1.65-1.303-1.73a6.888 6.888 0 0 0-.587-.018c-.256 0-.5.025-.736.076-.236.049-.45.199-.647.446-.194.248-.293.653-.293 1.22v5.444c0 .998.237 1.593.706 1.787.24.1.529.15.868.15.339 0 .581-.009.724-.025.151-.009.315-.05.49-.125.52-.21.778-.809.778-1.793V63.715zm-6.03.068c0-.98.292-1.712.88-2.196.585-.485 1.702-.726 3.35-.726 1.647 0 2.77.24 3.369.722.598.482.895 1.216.895 2.2v5.289c0 1.018-.288 1.792-.866 2.323-.578.53-1.708.796-3.387.796-1.678 0-2.806-.264-3.38-.79-.575-.526-.861-1.303-.861-2.329v-5.289zM81.854 60.985h1.747v11.073h-2.465v-9.324c-.272.172-.654.306-1.149.4-.494.093-.981.14-1.46.14v-.905a6.587 6.587 0 0 0 1.933-.434c.61-.238 1.074-.555 1.394-.95M32.555 76.222h1.747v11.072h-2.464V77.97c-.272.172-.654.305-1.149.399-.496.094-.982.14-1.46.14v-.905a6.58 6.58 0 0 0 1.932-.433c.61-.239 1.074-.555 1.394-.95M43.624 78.95c0-1.073-.436-1.649-1.305-1.73a6.888 6.888 0 0 0-.586-.018c-.256 0-.501.026-.735.076-.237.05-.452.2-.648.446-.194.248-.293.654-.293 1.22V84.389c0 .998.236 1.592.706 1.786.24.1.528.15.868.15.338 0 .581-.008.724-.025.15-.008.314-.05.49-.125.52-.21.779-.807.779-1.793V78.95zm-6.032.069c0-.98.294-1.713.88-2.197.586-.484 1.703-.726 3.35-.726s2.77.24 3.37.723c.597.482.895 1.215.895 2.2v5.288c0 1.018-.288 1.793-.867 2.323-.578.53-1.707.796-3.386.796-1.678 0-2.806-.263-3.38-.79-.575-.525-.862-1.302-.862-2.329V79.02zM51.221 76.222h1.747v11.072h-2.464V77.97c-.272.172-.654.305-1.15.399-.494.094-.98.14-1.459.14v-.905a6.587 6.587 0 0 0 1.933-.433c.61-.239 1.074-.555 1.393-.95M62.29 78.95c0-1.073-.435-1.649-1.304-1.73a6.888 6.888 0 0 0-.586-.018c-.258 0-.502.026-.737.076s-.45.2-.647.446c-.193.248-.292.654-.292 1.22V84.389c0 .998.235 1.592.706 1.786.24.1.528.15.867.15.339 0 .582-.008.724-.025.151-.008.315-.05.491-.125.519-.21.777-.807.777-1.793V78.95zm-6.031.069c0-.98.293-1.713.88-2.197.586-.484 1.702-.726 3.35-.726 1.647 0 2.77.24 3.368.723.599.482.897 1.215.897 2.2v5.288c0 1.018-.289 1.793-.867 2.323-.58.53-1.707.796-3.386.796-1.678 0-2.807-.263-3.38-.79-.576-.525-.862-1.302-.862-2.329V79.02zM74.846 78.95c0-1.073-.434-1.649-1.303-1.73a6.888 6.888 0 0 0-.586-.018c-.257 0-.501.026-.737.076-.235.05-.45.2-.647.446-.194.248-.292.654-.292 1.22V84.389c0 .998.236 1.592.706 1.786.24.1.528.15.867.15.339 0 .582-.008.724-.025.151-.008.315-.05.491-.125.519-.21.777-.807.777-1.793V78.95zm-6.03.069c0-.98.293-1.713.88-2.197.586-.484.094-.726 1.74-.726 1.648 0 4.38.24 4.978.723.599.482.897 1.215.897 2.2v5.288c0 1.018-.289 1.793-.867 2.323-.578.53-1.707.796-3.386.796s-2.807-.263-3.38-.79c-.576-.525-.862-1.302-.862-2.329V79.02zM82.445 76.222h1.747v11.072h-2.465V77.97c-.272.172-.654.305-1.149.399-.494.094-.98.14-1.459.14v-.905a6.587 6.587 0 0 0 1.932-.433c.61-.239 1.074-.555 1.394-.95"/>
        <path fill="#B1BAC3" d="M74.388 74.923l1.685-3.094c.076-.14.297-.173.493-.074l9.435 4.788c.26.132.403.373.314.535l-1.961 3.6c-.089.164-.368.175-.62.028l-9.14-5.329c-.189-.11-.282-.315-.206-.454"/>
        <path fill="#788F9B" d="M82.824 80.304l2.347-4.308c.08-.147.366-.15.632-.004l2.743 1.493c.267.146.42.386.339.535l-2.346 4.307c-.08.148-.365.15-.632.004l-2.743-1.493c-.268-.145-.42-.385-.34-.534"/>
        <path fill="#5FB7D3" d="M83.263 80.913l2.658-4.88c.12-.22.592-.204 1.053.036l14.525 7.429c.614.32 1.005.791.865 1.047l-3.093 5.68c-.14.256-.749.183-1.349-.158L83.864 81.78c-.451-.257-.72-.646-.601-.867"/>
        <path fill="#788F9B" d="M79.54 73.267l-2.062 3.79.438.256 3.353 1.956.438.256 2.202-4.044z"/>
        <path fill="#5FB7D3" d="M77.568 77.952l2.774-5.096c.096-.175.374-.208.62-.075l2.516 1.371c.245.132.367.386.273.56l-2.775 5.095c-.095.175-.374.209-.62.076l-2.515-1.37c-.246-.134-.367-.386-.273-.56"/>
        <path fill="#FFF" d="M75.935 72.084l25.585 14.009-1.214 2.23-25.586-14.01z"/>
        <path fill="#FFF" d="M65.399 79.347c-9.12 3.85-19.636-.419-23.487-9.539-3.85-9.12.42-19.635 9.539-23.486 9.12-3.851 19.635.419 23.486 9.538 3.851 9.12-.418 19.636-9.538 23.487m1.175 2.783C77.23 77.63 82.22 65.342 77.72 54.684 73.22 44.028 60.932 39.04 50.276 43.54c-10.656 4.5-15.647 16.787-11.147 27.444C43.63 81.64 55.918 86.63 66.574 82.13"/>
        <path fill="#17374F" d="M65.428 80.487c-9.412 3.974-20.271-.448-24.254-9.877-3.982-9.43.419-20.298 9.832-24.273 9.412-3.975 20.27.448 24.254 9.877 3.983 9.43-.42 20.298-9.832 24.273m-.263-1.695c8.813-3.721 12.94-13.884 9.219-22.698-3.723-8.813-13.885-12.94-22.698-9.218-8.813 3.723-12.94 13.885-9.219 22.698 3.722 8.813 13.884 12.94 22.698 9.218"/>
    </g>
</svg>
