<svg xmlns="http://www.w3.org/2000/svg" width="126" height="126" viewBox="0 0 126 126">
    <g fill="none" fill-rule="evenodd">
        <circle cx="63" cy="63" r="63"/>
        <path fill="#5FB7D3" d="M102.477 60.495v.09h-28.63c-3.268 0-5.946-2.646-6.22-6.015a7.116 7.116 0 0 0-.029.57c0 3.637 2.799 6.585 6.25 6.585h28.63v-.09c2.98-.501 5.258-3.215 5.258-6.496a6.87 6.87 0 0 0-.026-.54c-.258 3.007-2.436 5.425-5.233 5.896"/>
        <path fill="#5FB7D3" d="M107.737 54.256c0 .194-.01.387-.028.577-.004.047-.008.095-.015.142-.314 2.823-2.465 5.08-5.217 5.525v.085H73.848c-3.215 0-5.857-2.458-6.204-5.62a2.714 2.714 0 0 1-.018-.161c-.014-.183-.029-.362-.029-.548 0-3.495 2.798-6.329 6.251-6.329.585 0 1.15.088 1.688.237.046-3.455 2.822-6.24 6.244-6.24 1.975 0 3.735.935 4.882 2.384 1.358-2.437 3.94-4.083 6.9-4.083 4.268 0 7.747 3.418 7.917 7.702h.007c3.453 0 6.251 2.834 6.251 6.329"/>
        <path fill="#5FB7D3" d="M107.694 55.4c-.314 2.609-2.465 4.695-5.217 5.106v.08H73.848c-3.215 0-5.857-2.273-6.204-5.197.364-2.902 3.003-5.153 6.204-5.153.585 0 1.15.08 1.688.219.046-3.194 2.823-5.77 6.244-5.77 1.975 0 3.735.865 4.882 2.205 1.358-2.252 3.94-3.773 6.9-3.773 4.268 0 7.748 3.16 7.917 7.119h.007c3.205 0 5.848 2.258 6.208 5.164"/>
        <path fill="#F66800" d="M51.67 36.015l.007.167c-.002-.055-.004-.111-.016-.167h.01z"/>
        <path fill="#DFA479" d="M45.845 60.447v5.514l7.158 5.958 2.282-2.341 3.698-3.796v-6.047z"/>
        <path fill="#EFB683" d="M63.854 50.142s-.197-.758-.382-1.09a2.575 2.575 0 0 0-.674-.782c-.236-.184-.645-.28-.734-.538-.094-.271.186-.954.221-1.254.046-.38.066-.764.016-1.146-.253-1.883-2.192-3.16-4.016-3.798-1.81-.632-3.355-3.835-5.214-3.247a4.55 4.55 0 0 0-.565-.133c-2.024-.371-5.545.042-7.191.617-1.825.639-2.926 4.678-3.179 6.561-.078.58.206 1.245.093 1.79-.117.57-.73.719-1.151 1.008-.758.52-.56 2.001-.56 2.001l.877 4.447s1.005 1 1.591 1.565c.65.624 1.627 3.98 1.627 3.98l5.45 4.706 5.6-.238 4.17-3.694 1.617-4.754 1.593-1.565.811-4.436z"/>
        <path fill="#17374F" d="M41.336 48.248c.185.784.464 1.54.928 2.229.129-.717.351-3.422.419-4.045.185-1.67 4.048-6.586 5.187-6.434.672.09 6.603 2.891 6.603 2.891l7.02 2.12s.272 3.715.383 5.515c.006.095.028.214.12.237.11.03.19-.099.23-.203.352-.947.84-1.925 1.086-2.892.188-.737.01-7.759.01-7.759S56.818 34.001 53.192 34c-3.045-.001-7.408.971-9.129 3.432-3.256.692-3.68 5.482-3.68 5.482s.733 4.4.953 5.334"/>
        <path fill="#FFF" d="M53.206 90.037l5.778-14.02-6.03-6.103h-.813s-6.34 6.042-6.296 6.48l6.262 13.643h1.099z"/>
        <path fill="#17374F" d="M55.706 82.802l-2.145-8.829a1.111 1.111 0 0 1 .126-.826l.814-1.389a.211.211 0 0 0-.056-.243l-.94-.848c-.213-.192-.47-.372-.593-.623-.09-.18-.332-.584-.615-.412-.247.15-.33.385-.49.583-.16.2-.41.37-.602.543l-.84.757a.207.207 0 0 0-.054.243l.813 1.389c.149.252.193.546.125.826l-2.145 8.83a.208.208 0 0 0 .01.132l2.971 6.923c.054.126.202.16.32.12.118.04.266.006.32-.12l2.972-6.923a.208.208 0 0 0 .01-.133"/>
        <path fill="#17374F" d="M52.027 95.612c-.267 0-.541-.01-.809-.018a31.947 31.947 0 0 1-1.798-.094 37.567 37.567 0 0 1-16.745-5.304c-.187-.109-.369-.22-.557-.345A37.8 37.8 0 0 1 26 85.09s4.021-13.357 4.155-13.442c2.815-1.401 6.33-2.134 11.026-3.43 1.477-.4 2.686-.728 3.338-.91.125-.032.228-.062.306-.078.15-.04.22-.063.22-.063l2.066 6.222.369 1.107.321.981 1.784 5.36 2.442 7.351.055 1.673.008.141.189 5.61h-.252z"/>
        <path fill="#17374F" d="M78.643 84.868c-5.693 5.548-13.123 9.315-21.4 10.406-.292.031-.59.07-.88.101-.331.04-.66.071-.99.103a36.8 36.8 0 0 1-3.095.134h-.25v-7.425l.29.872v-.134l2.85-8.333 1.704-5 .072-.202.369-1.067 2.45-7.157s.071.024.22.063c.086.024.189.055.314.086.653.18 1.861.51 3.33.902 4.696 1.296 9.2 2.801 11.027 3.43.113.038 3.99 13.221 3.99 13.221"/>
        <path fill="#F2F2F2" d="M59.084 64.096l-6.504 5.321c-.1.08-.25.08-.35 0l-6.503-5.321-1.454 3.861 2.81 8.438 5.11-6.518a.278.278 0 0 1 .426 0l5.109 6.518 2.81-8.438-1.454-3.861z"/>
        <path fill="#D9D9D9" d="M60.831 72.611l3.409 1.304-8.867 21.562a36.8 36.8 0 0 1-3.094.134h-.252c-.266 0-.542-.007-.81-.016-.603-.015-1.2-.046-1.797-.094L40.57 73.915l3.408-1.304-3.919-1.749a24.1 24.1 0 0 1 1.124-2.644c1.75-.472 3.157-1.664 3.674-1.805l2.255 6.976.4 1.075.354.942 1.068 2.88.739 2.196 2.536 7.58 2.898-7.721.77-2.056.997-2.692.07-.203.362-1.075 2.655-7.894v-.008c.517.141 1.924 1.333 3.667 1.805.51.997.935 2.103 1.123 2.644l-3.919 1.75z"/>
        <path fill="#E5DC69" d="M91.396 49.665a.913.913 0 0 0 .126-.443v-13.04a.93.93 0 0 0-.931-.931H65.909a.93.93 0 1 0 0 1.862h23.75v12.11c0 .162.054.308.127.442h-3.48l4.053 7.02 4.053-7.02h-3.016zM90.591 62.262a.93.93 0 0 0-.93.931V77.63h-4.408v-2.894l-5.071 2.927a.911.911 0 0 0-.546.315l-1.404.81 7.02 4.054v-3.349h5.34a.93.93 0 0 0 .93-.932V63.193a.93.93 0 0 0-.93-.93"/>
    </g>
</svg>
