<svg xmlns="http://www.w3.org/2000/svg" width="126" height="126" viewBox="0 0 126 126">
    <g fill="none" fill-rule="evenodd">
        <circle cx="63" cy="63" r="63"/>
        <path fill="#5FB7D3" d="M90.275 75.994v.16H36.697c-6.118 0-11.13-4.698-11.643-10.682-.03.334-.052.67-.052 1.012 0 6.46 5.236 11.694 11.695 11.694h53.578v-.16c5.576-.89 9.842-5.707 9.842-11.534 0-.324-.022-.643-.048-.96-.483 5.34-4.56 9.635-9.794 10.47"/>
        <path fill="#5FB7D3" d="M100.12 64.914c0 .344-.021.688-.055 1.025a2.77 2.77 0 0 1-.027.253c-.587 5.013-4.614 9.02-9.763 9.81v.15H36.7c-6.018 0-10.963-4.364-11.611-9.98-.014-.097-.028-.188-.034-.284-.027-.325-.054-.643-.054-.974 0-6.205 5.235-11.238 11.7-11.238 1.092 0 2.151.156 3.156.422.089-6.135 5.283-11.082 11.687-11.082 3.696 0 6.989 1.66 9.134 4.234C63.22 42.925 68.051 40 73.59 40c7.99 0 14.5 6.07 14.816 13.676h.014c6.463 0 11.7 5.033 11.7 11.238"/>
        <path fill="#5FB7D3" d="M100.038 66.946c-.587 4.633-4.615 8.337-9.763 9.068v.139H36.7c-6.019 0-10.965-4.034-11.612-9.225.681-5.155 5.62-9.153 11.612-9.153 1.092 0 2.151.144 3.157.39.087-5.67 5.283-10.242 11.685-10.242 3.697 0 6.99 1.533 9.136 3.913 2.543-3.997 7.374-6.701 12.912-6.701 7.989 0 14.5 5.61 14.816 12.64h.015c5.997 0 10.943 4.01 11.617 9.17"/>
        <path fill="#E5DC69" d="M44.832 59.666v17.726h-3.88l9.556 9.556 9.557-9.556h-3.88V59.666z"/>
        <path fill="#FFF" d="M80.526 85.325V67.598h3.88l-9.555-9.556-9.558 9.556h3.881v17.727z"/>
    </g>
</svg>
