<svg xmlns="http://www.w3.org/2000/svg" width="126" height="126" viewBox="0 0 126 126">
    <g fill="none" fill-rule="evenodd">
        <circle cx="63" cy="63" r="63"/>
        <path fill="#F4CD25" d="M41.68 77.778h8.022V60.085H41.68z"/>
        <path fill="#E57264" d="M51.289 77.778h8.022V52.381h-8.022z"/>
        <path fill="#5FB7D3" d="M60.898 77.778h8.022V42.252h-8.022z"/>
        <path fill="#F88E19" d="M70.508 77.778h8.022v-28.29h-8.022z"/>
        <path fill="#17374F" d="M80.674 77.778h8.02V45.93h-8.02z"/>
        <path fill="#FFF" d="M84.93 43.236l2.47-6.161-6.571.941z"/>
        <path fill="#FFF" d="M44 57.961a1.281 1.281 0 0 1-.926-2.169L63.012 35a1.283 1.283 0 0 1 1.74-.102l10.693 8.822 8.552-5.157a1.281 1.281 0 1 1 1.323 2.194l-9.328 5.626a1.284 1.284 0 0 1-1.478-.108L64.04 37.632 44.925 57.566a1.274 1.274 0 0 1-.925.395"/>
        <path fill="#FFF" d="M66.394 36.35a2.35 2.35 0 1 1-4.7 0 2.35 2.35 0 0 1 4.7 0"/>
        <path fill="#17374F" d="M94.271 84.308H35.74a1.282 1.282 0 0 1-1.281-1.282v-41.87a1.282 1.282 0 1 1 2.563 0v40.588h57.25a1.282 1.282 0 0 1 0 2.564"/>
        <path fill="#5FB7D3" d="M35.1 81.6l-.066 14.099a14.049 14.049 0 0 1-7.043-1.922 14.204 14.204 0 0 1-5.134-5.187A14.01 14.01 0 0 1 21 81.533a14.039 14.039 0 0 1 1.923-7.042L35.1 81.6z"/>
        <path fill="#E57264" d="M35.1 81.6l6.99 12.242a14.01 14.01 0 0 1-7.056 1.857l.065-14.1z"/>
        <path fill="#E57264" d="M35.1 81.6l6.988 12.243a14.172 14.172 0 0 0 5.186-5.135L35.099 81.6zM49.2 81.666a14.032 14.032 0 0 1-1.924 7.041L35.1 81.599l14.1.067z"/>
        <path fill="#F88E19" d="M28.109 69.357a14.201 14.201 0 0 0-5.186 5.134L35.099 81.6l.055-.096-.11-14c-2.521.008-4.89.682-6.935 1.853"/>
        <path fill="#F62F48" d="M35.3 81.252l-.061.267-.14.08z"/>
        <path fill="#17374F" d="M47.344 74.607a14.06 14.06 0 0 1 1.853 7.06L35.1 81.6l.137-.082.066-.264-.152.252-.111-14a.87.87 0 0 1 .128-.004c1.07.003 2.117.133 3.118.363 1.397.328 2.715.862 3.92 1.56a14.207 14.207 0 0 1 5.138 5.183"/>
    </g>
</svg>
