<svg id="iconfinder_Education_and_Learning_head_cog_brainstorm_thinking_ideas_6590535" xmlns="http://www.w3.org/2000/svg" width="43.599" height="50" viewBox="0 0 43.599 50">
  <path id="路径_25" data-name="路径 25" d="M133.448,146.154a.912.912,0,0,0-.681-.511c-1.533.341-2.895,0-3.406-.851s-.17-2.214,1.022-3.406a.773.773,0,0,0,0-.851,11.667,11.667,0,0,0-5.619-3.235c-.341-.17-.681.17-.851.511-.511,1.362-1.533,2.384-2.554,2.384s-2.043-1.022-2.554-2.554a.936.936,0,0,0-.851-.511,11.667,11.667,0,0,0-5.619,3.235.773.773,0,0,0,0,.851c1.022,1.192,1.533,2.554,1.022,3.406s-1.873,1.192-3.406.851c-.341,0-.681.17-.681.511a10.5,10.5,0,0,0,0,6.471.912.912,0,0,0,.681.511c1.533-.341,2.895,0,3.406.851s.17,2.214-1.022,3.406a.773.773,0,0,0,0,.851,11.667,11.667,0,0,0,5.619,3.235h.17c.341,0,.511-.17.681-.511.511-1.533,1.362-2.554,2.554-2.554s2.043,1.022,2.554,2.554a.936.936,0,0,0,.851.511,11.667,11.667,0,0,0,5.619-3.235.773.773,0,0,0,0-.851c-1.022-1.192-1.533-2.554-1.022-3.406s1.873-1.192,3.406-.851c.341,0,.681-.17.681-.511a10.693,10.693,0,0,0,.511-3.235A9.643,9.643,0,0,0,133.448,146.154Zm-10.558,3.917c-.17.17-.17.341-.341.511a1.546,1.546,0,0,1-1.192.511,1.024,1.024,0,0,1-.681-.17c-.17-.17-.341-.17-.511-.341s-.341-.341-.341-.511-.17-.511-.17-.681a1.024,1.024,0,0,1,.17-.681c.17-.17.17-.341.341-.511a1.646,1.646,0,0,1,2.384,0c.17.17.341.341.341.511s.17.511.17.681A1.024,1.024,0,0,1,122.891,150.07Z" transform="translate(-108.757 -130.658)" fill="#017ec5"/>
  <path id="路径_26" data-name="路径 26" d="M248.684,75.143l-5.231-10.357a18.11,18.11,0,0,0-29.584-13.393,17.964,17.964,0,0,1,4.329-.536A16.072,16.072,0,1,1,218.2,83a17.162,17.162,0,0,1-5.412-.893v9.821a1.743,1.743,0,0,0,1.443,1.786l18.039,3.571h.361a1.947,1.947,0,0,0,1.082-.357,2.2,2.2,0,0,0,.722-1.429V88.357h3.608A5.289,5.289,0,0,0,243.453,83V77.643h3.608a2.158,2.158,0,0,0,1.624-.893A1.692,1.692,0,0,0,248.684,75.143Z" transform="translate(-205.293 -47.286)" fill="#7db33d"/>
</svg>
