<svg xmlns="http://www.w3.org/2000/svg" width="29.386" height="30" viewBox="0 0 29.386 30">
  <g id="new_ico" transform="translate(-29.153 -355.066)">
    <path id="路径_186" data-name="路径 186" d="M68.645,398.915v3.734l6.34-5.361H70.568A1.793,1.793,0,0,0,68.645,398.915Z" transform="translate(-16.446 -17.583)"/>
    <path id="路径_187" data-name="路径 187" d="M38.73,360.889a1.114,1.114,0,0,0,1.194-1.011v-3.8a1.211,1.211,0,0,0-2.388,0v3.8A1.115,1.115,0,0,0,38.73,360.889Z" transform="translate(-3.491 0)"/>
    <path id="路径_188" data-name="路径 188" d="M68.229,360.889a1.113,1.113,0,0,0,1.193-1.011v-3.8a1.211,1.211,0,0,0-2.388,0v3.8A1.114,1.114,0,0,0,68.229,360.889Z" transform="translate(-15.775 0)"/>
    <path id="路径_189" data-name="路径 189" d="M56.615,360.055H54.48v1.9a2.056,2.056,0,0,1-4.056,0v-1.9H37.267v1.9a2.057,2.057,0,0,1-4.056,0v-1.9H31.076a1.794,1.794,0,0,0-1.923,1.626v4.8H58.539v-4.8A1.793,1.793,0,0,0,56.615,360.055Z" transform="translate(0 -2.078)"/>
    <path id="路径_190" data-name="路径 190" d="M29.153,390.606a1.794,1.794,0,0,0,1.923,1.627H51.365V388.5a2.574,2.574,0,0,1,2.757-2.332h4.417V372.275H29.153Zm21.616-16.073h3.367v2.846H50.769Zm0,4.2h3.367v2.847H50.769Zm-5.738-4.2H48.4v2.846H45.032Zm0,4.2H48.4v2.847H45.032Zm0,4.2H48.4v2.847H45.032Zm-5.737-8.4H42.66v2.846H39.295Zm0,4.2H42.66v2.847H39.295Zm0,4.2H42.66v2.847H39.295Zm-5.739-8.4h3.367v2.846H33.555Zm0,4.2h3.367v2.847H33.555Zm0,4.2h3.367v2.847H33.555Z" transform="translate(0 -7.167)"/>
  </g>
</svg>
