<svg xmlns="http://www.w3.org/2000/svg" width="24" height="28.239" viewBox="0 0 24 28.239">
  <g id="PDF" transform="translate(-51.3 -13)">
    <path id="路径_164" data-name="路径 164" d="M75.1,21.222l-6.97-8.046A.6.6,0,0,0,67.707,13H57.433a4.244,4.244,0,0,0-4.126,4.353v6.463H51.3V37.1h2.008v.982c0,2.4,1.854,3.153,4.126,3.153H71.174A4.244,4.244,0,0,0,75.3,36.886V21.7A.653.653,0,0,0,75.1,21.222Zm-7.6-6.873,5.908,7.005H70.74a3.214,3.214,0,0,1-3.239-3.18Zm6.553,22.538a2.965,2.965,0,0,1-2.88,3.041H57.433c-1.59,0-2.88-.163-2.88-1.841V37.1h13.7c2.675,0,4.836-3.64,4.836-6.645s-2.169-6.645-4.836-6.645h-13.7V17.353a2.965,2.965,0,0,1,2.88-3.041h8.822v3.862a4.491,4.491,0,0,0,4.485,4.492h3.314Zm-18.9-3.679v-5.5h2.1a2,2,0,0,1,1.422.469,1.618,1.618,0,0,1,.513,1.238,1.583,1.583,0,0,1-.513,1.238,2.064,2.064,0,0,1-1.422.469H56.07v2.081h-.916Zm5.151,0v-5.5h1.817a2.321,2.321,0,0,1,1.7.652,2.253,2.253,0,0,1,.652,1.678v.835a2.269,2.269,0,0,1-.652,1.678,2.321,2.321,0,0,1-1.7.652H60.306ZM68.85,30.13v.733H66.637v2.345h-.923v-5.5h3.517v.733h-2.6v1.678h2.22Z" transform="translate(0)" fill="#fff"/>
    <path id="路径_165" data-name="路径 165" d="M118.357,333.163a.977.977,0,0,0,.256-.689.925.925,0,0,0-1.026-.975H116.4v1.942h1.187A1.037,1.037,0,0,0,118.357,333.163Z" transform="translate(-60.33 -303.048)" fill="#fff"/>
    <path id="路径_166" data-name="路径 166" d="M187.6,331.5h-.9v4.03h.9a1.306,1.306,0,0,0,1.048-.447,1.707,1.707,0,0,0,.388-1.15v-.843a1.7,1.7,0,0,0-.388-1.143A1.306,1.306,0,0,0,187.6,331.5Z" transform="translate(-125.478 -303.048)" fill="#fff"/>
    <rect id="矩形_316" data-name="矩形 316" width="18" height="9" transform="translate(52.3 25.239)" fill="#fff"/>
    <text id="PDF-2" data-name="PDF" transform="translate(51.3 35.239)" fill="#436a14" font-size="12" font-family="SourceHanSansTC-Bold, Source Han Sans TC" font-weight="700" letter-spacing="-0.1em"><tspan x="0" y="0">PDF</tspan></text>
  </g>
</svg>
