<svg xmlns="http://www.w3.org/2000/svg" width="56.351" height="52.121" viewBox="0 0 56.351 52.121">
  <g id="ProtectionBureau" transform="translate(4.823 -2.937)">
    <g id="组_380" data-name="组 380" transform="translate(-660.545 -280.157)">
      <path id="路径_193" data-name="路径 193" d="M658.638,417.085a20.924,20.924,0,0,1,.844-13.786,24.107,24.107,0,0,1,1.032,13.786Z" transform="translate(-1.339 -84.583)" fill="#466922"/>
      <path id="路径_194" data-name="路径 194" d="M820.991,409.473a25.3,25.3,0,0,1,1.233-18.258,29.213,29.213,0,0,1,1.507,18.258Z" transform="translate(-114.875 -76.971)" fill="#466922"/>
      <path id="路径_195" data-name="路径 195" d="M666.051,421a16.5,16.5,0,0,1,.746-11.486A19.035,19.035,0,0,1,667.709,421Z" transform="translate(-6.066 -88.497)" fill="#527a28"/>
      <g id="组_365" data-name="组 365" transform="translate(655.722 324.468)">
        <path id="路径_196" data-name="路径 196" d="M711.332,419.131a1.87,1.87,0,0,0-1.788,1.725.954.954,0,0,0-.545-.162,1.152,1.152,0,0,0-1.071,1.212h-1.836c0-.431-.23-.861-.691-.861s-.691.43-.691.861h-.159c.074-.872-.357-1.819-1.3-1.819s-1.37.947-1.3,1.819h-3.221a1.81,1.81,0,0,0-1.683-1.914,1.5,1.5,0,0,0-.848.25,2.168,2.168,0,0,0-.38-.686l-.079-.1a1.314,1.314,0,0,0-.563-.436,1.342,1.342,0,0,0-1.348,0,1.313,1.313,0,0,0-.563.436l-.273.426a2.428,2.428,0,0,0-.239,1.063l.062.56a2.431,2.431,0,0,0,.132.4h-2.531a1.163,1.163,0,0,0-1.115-1.053,1.012,1.012,0,0,0-.771.336,1.2,1.2,0,0,0-1.137-1.2c-.941,0-1.3,1.079-1.092,1.914h-1.416c.036-.748-.346-1.531-1.149-1.531s-1.184.783-1.149,1.531h-2.98a1.069,1.069,0,0,0-1.983,0h-2.309c0-.718-.383-1.436-1.152-1.436s-1.152.718-1.152,1.436h-2.484a1.647,1.647,0,0,0,.026-.287,1.261,1.261,0,0,0-.1-.553,1.121,1.121,0,0,0-.247-.462,1.107,1.107,0,0,0-.843-.42,1.146,1.146,0,0,0-.843.42l-.08.1a1.576,1.576,0,0,0-.309.662,1.018,1.018,0,0,0-.836-.413,1.136,1.136,0,0,0-1.091.957h-4.335a1.136,1.136,0,0,0-1.092-.957,1.012,1.012,0,0,0-.648.222,1.515,1.515,0,0,0-.337-.854,1.142,1.142,0,0,0-.843-.42h-.08a1.134,1.134,0,0,0-.843.42,1.121,1.121,0,0,0-.247.462,1.261,1.261,0,0,0-.1.553,2.027,2.027,0,0,0,.1.574h-2.063v4.969h56.351V419.3A1.673,1.673,0,0,0,711.332,419.131Z" transform="translate(-655.722 -418.843)" fill="#64942f"/>
        <g id="组_364" data-name="组 364" transform="translate(5.797 2.039)">
          <path id="路径_197" data-name="路径 197" d="M675.412,429.525a.766.766,0,0,1,0,1.531A.766.766,0,0,1,675.412,429.525Z" transform="translate(-673.456 -427.611)" fill="#5b872b"/>
          <path id="路径_198" data-name="路径 198" d="M671.571,430.171a.192.192,0,0,1,0,.383A.192.192,0,0,1,671.571,430.171Z" transform="translate(-671.386 -428.018)" fill="#5b872b"/>
          <path id="路径_199" data-name="路径 199" d="M702.99,434.624l.048.048a.191.191,0,0,1-.271.271l-.048-.048A.192.192,0,0,1,702.99,434.624Z" transform="translate(-689.682 -430.787)" fill="#5b872b"/>
          <path id="路径_200" data-name="路径 200" d="M699.145,435.991a.239.239,0,0,1,0,.479A.239.239,0,0,1,699.145,435.991Z" transform="translate(-687.488 -431.684)" fill="#5b872b"/>
          <path id="路径_201" data-name="路径 201" d="M696.833,430.43a.479.479,0,0,1,0,.957A.479.479,0,0,1,696.833,430.43Z" transform="translate(-685.989 -428.181)" fill="#5b872b"/>
          <path id="路径_202" data-name="路径 202" d="M741.165,432.758a.479.479,0,0,1,0,.957A.479.479,0,0,1,741.165,432.758Z" transform="translate(-719.933 -429.647)" fill="#5b872b"/>
          <path id="路径_203" data-name="路径 203" d="M729.884,436.6a.522.522,0,0,1,.241-.313.547.547,0,0,1,.356-.061l.04.007h.009a.478.478,0,0,1,.4.365.573.573,0,0,1-.133.521.546.546,0,0,1-.391.162.59.59,0,0,1-.387-.159A.555.555,0,0,1,729.884,436.6Z" transform="translate(-712.358 -431.825)" fill="#5b872b"/>
          <path id="路径_204" data-name="路径 204" d="M727.845,431.335a.479.479,0,0,1,0,.957A.479.479,0,0,1,727.845,431.335Z" transform="translate(-710.604 -428.751)" fill="#5b872b"/>
          <path id="路径_205" data-name="路径 205" d="M746.869,431.206a.622.622,0,0,1,0,1.244A.622.622,0,0,1,746.869,431.206Z" transform="translate(-723.855 -428.669)" fill="#5b872b"/>
          <path id="路径_206" data-name="路径 206" d="M738.314,430.689a.353.353,0,0,1,0,.706A.353.353,0,0,1,738.314,430.689Z" transform="translate(-718.003 -428.344)" fill="#5b872b"/>
          <path id="路径_207" data-name="路径 207" d="M740.5,436.508a.479.479,0,0,1,0,.957A.479.479,0,0,1,740.5,436.508Z" transform="translate(-719.465 -432.009)" fill="#5b872b"/>
          <path id="路径_208" data-name="路径 208" d="M786.351,425.386h.048a.479.479,0,0,1,0,.957h-.048a.479.479,0,0,1,0-.957Z" transform="translate(-751.579 -425.003)" fill="#5b872b"/>
          <path id="路径_209" data-name="路径 209" d="M780.155,424.352a.239.239,0,0,1,0,.479A.239.239,0,0,1,780.155,424.352Z" transform="translate(-747.344 -424.352)" fill="#5b872b"/>
          <path id="路径_210" data-name="路径 210" d="M780.042,429.525a.479.479,0,0,1,0,.957A.479.479,0,0,1,780.042,429.525Z" transform="translate(-747.161 -427.611)" fill="#5b872b"/>
          <path id="路径_211" data-name="路径 211" d="M813.049,431.335h.025a.251.251,0,0,1,0,.5h-.025a.251.251,0,0,1,0-.5Z" transform="translate(-772.989 -428.751)" fill="#5b872b"/>
          <path id="路径_212" data-name="路径 212" d="M823.391,436.378a.479.479,0,0,1,0,.957A.479.479,0,0,1,823.391,436.378Z" transform="translate(-778.341 -431.927)" fill="#5b872b"/>
          <path id="路径_213" data-name="路径 213" d="M835.03,426.938a.479.479,0,0,1,0,.957A.479.479,0,0,1,835.03,426.938Z" transform="translate(-785.673 -425.981)" fill="#5b872b"/>
          <path id="路径_214" data-name="路径 214" d="M832.721,429.266a.383.383,0,0,1,0,.766A.383.383,0,0,1,832.721,429.266Z" transform="translate(-784.277 -427.447)" fill="#5b872b"/>
          <path id="路径_215" data-name="路径 215" d="M802,436.765a.487.487,0,0,1,.479.479v.048a.479.479,0,0,1-.957,0v-.048A.484.484,0,0,1,802,436.765Z" transform="translate(-762.532 -432.171)" fill="#5b872b"/>
        </g>
      </g>
      <rect id="矩形_334" data-name="矩形 334" width="56.31" height="2.714" transform="translate(655.763 332.501)" fill="#80b407"/>
      <g id="组_379" data-name="组 379" transform="translate(660.523 285.215)">
        <g id="组_367" data-name="组 367" transform="translate(1.481 9.097)">
          <g id="组_366" data-name="组 366" transform="translate(0 0)">
            <rect id="矩形_335" data-name="矩形 335" width="43.827" height="7.214" transform="translate(0 0)" fill="#2a75ae"/>
            <rect id="矩形_336" data-name="矩形 336" width="43.827" height="0.758" transform="translate(0 0)" fill="#204152" opacity="0.2"/>
            <rect id="矩形_337" data-name="矩形 337" width="7.214" height="0.758" transform="translate(9.49 0) rotate(90)" fill="#4298c7"/>
            <rect id="矩形_338" data-name="矩形 338" width="7.214" height="0.758" transform="translate(22.293 0) rotate(90)" fill="#4298c7"/>
            <rect id="矩形_339" data-name="矩形 339" width="7.214" height="0.758" transform="translate(35.096 0) rotate(90)" fill="#4298c7"/>
          </g>
          <path id="路径_216" data-name="路径 216" d="M700.832,323.266H689.853l3.3-7.214h10.979Z" transform="translate(-682.1 -316.053)" fill="#fff" opacity="0.1"/>
          <path id="路径_217" data-name="路径 217" d="M738.717,323.266h-8.7l3.3-7.214h8.7Z" transform="translate(-714.435 -316.053)" fill="#fff" opacity="0.1"/>
          <path id="路径_218" data-name="路径 218" d="M769.306,323.266h-5.12l3.3-7.214h5.12Z" transform="translate(-738.627 -316.053)" fill="#fff" opacity="0.1"/>
          <path id="路径_219" data-name="路径 219" d="M799.413,323.266h-2.56l3.3-7.214h2.56Z" transform="translate(-762.401 -316.053)" fill="#fff" opacity="0.1"/>
        </g>
        <rect id="矩形_340" data-name="矩形 340" width="46.789" height="2.182" transform="translate(0 10.316)" fill="#eef7fc"/>
        <g id="组_369" data-name="组 369" transform="translate(1.481 16.586)">
          <g id="组_368" data-name="组 368" transform="translate(0 0)">
            <rect id="矩形_341" data-name="矩形 341" width="43.827" height="7.214" transform="translate(0 0)" fill="#2a75ae"/>
            <rect id="矩形_342" data-name="矩形 342" width="43.827" height="0.758" transform="translate(0 0)" fill="#204152" opacity="0.2"/>
            <rect id="矩形_343" data-name="矩形 343" width="7.214" height="0.758" transform="translate(9.49 0) rotate(90)" fill="#4298c7"/>
            <rect id="矩形_344" data-name="矩形 344" width="7.214" height="0.758" transform="translate(22.293 0) rotate(90)" fill="#4298c7"/>
            <rect id="矩形_345" data-name="矩形 345" width="7.214" height="0.758" transform="translate(35.096 0) rotate(90)" fill="#4298c7"/>
          </g>
          <path id="路径_220" data-name="路径 220" d="M700.832,348.654H689.853l3.3-7.214h10.979Z" transform="translate(-682.1 -341.441)" fill="#fff" opacity="0.1"/>
          <path id="路径_221" data-name="路径 221" d="M738.717,348.654h-8.7l3.3-7.214h8.7Z" transform="translate(-714.435 -341.441)" fill="#fff" opacity="0.1"/>
          <path id="路径_222" data-name="路径 222" d="M769.306,348.654h-5.12l3.3-7.214h5.12Z" transform="translate(-738.627 -341.441)" fill="#fff" opacity="0.1"/>
          <path id="路径_223" data-name="路径 223" d="M799.413,348.654h-2.56l3.3-7.214h2.56Z" transform="translate(-762.401 -341.441)" fill="#fff" opacity="0.1"/>
        </g>
        <rect id="矩形_346" data-name="矩形 346" width="46.789" height="2.182" transform="translate(0 15.191)" fill="#eef7fc"/>
        <g id="组_371" data-name="组 371" transform="translate(1.481 24.075)">
          <g id="组_370" data-name="组 370" transform="translate(0 0)">
            <rect id="矩形_347" data-name="矩形 347" width="43.827" height="7.214" transform="translate(0 0)" fill="#2a75ae"/>
            <rect id="矩形_348" data-name="矩形 348" width="43.827" height="0.758" transform="translate(0 0)" fill="#204152" opacity="0.2"/>
            <rect id="矩形_349" data-name="矩形 349" width="7.214" height="0.758" transform="translate(9.49 0) rotate(90)" fill="#4298c7"/>
            <rect id="矩形_350" data-name="矩形 350" width="7.214" height="0.758" transform="translate(22.293 0) rotate(90)" fill="#4298c7"/>
            <rect id="矩形_351" data-name="矩形 351" width="7.214" height="0.758" transform="translate(35.096 0) rotate(90)" fill="#4298c7"/>
          </g>
          <path id="路径_224" data-name="路径 224" d="M700.832,374.042H689.853l3.3-7.214h10.979Z" transform="translate(-682.1 -366.829)" fill="#fff" opacity="0.1"/>
          <path id="路径_225" data-name="路径 225" d="M738.717,374.042h-8.7l3.3-7.214h8.7Z" transform="translate(-714.435 -366.829)" fill="#fff" opacity="0.1"/>
          <path id="路径_226" data-name="路径 226" d="M769.306,374.042h-5.12l3.3-7.214h5.12Z" transform="translate(-738.627 -366.829)" fill="#fff" opacity="0.1"/>
          <path id="路径_227" data-name="路径 227" d="M799.413,374.042h-2.56l3.3-7.214h2.56Z" transform="translate(-762.401 -366.829)" fill="#fff" opacity="0.1"/>
        </g>
        <rect id="矩形_352" data-name="矩形 352" width="46.789" height="2.182" transform="translate(0 22.853)" fill="#eef7fc"/>
        <rect id="矩形_353" data-name="矩形 353" width="43.827" height="20.069" transform="translate(1.481 27.217)" fill="#eef7fc"/>
        <g id="组_374" data-name="组 374" transform="translate(4.473)">
          <rect id="矩形_354" data-name="矩形 354" width="28.602" height="8.026" transform="translate(0.741 1.234)" fill="#b4d4e9"/>
          <rect id="矩形_355" data-name="矩形 355" width="30.084" height="1.234" fill="#223752"/>
          <g id="组_373" data-name="组 373" transform="translate(1.783 3.82)">
            <rect id="矩形_356" data-name="矩形 356" width="2.725" height="26.332" transform="translate(26.332 0) rotate(90)" fill="#04486b"/>
            <g id="组_372" data-name="组 372" transform="translate(1.927 0)">
              <rect id="矩形_357" data-name="矩形 357" width="2.725" height="0.568" transform="translate(22.408 0) rotate(90)" fill="#05568d"/>
              <rect id="矩形_358" data-name="矩形 358" width="2.725" height="0.568" transform="translate(16.948 0) rotate(90)" fill="#05568d"/>
              <rect id="矩形_359" data-name="矩形 359" width="2.725" height="0.568" transform="translate(11.488 0) rotate(90)" fill="#05568d"/>
              <rect id="矩形_360" data-name="矩形 360" width="2.725" height="0.568" transform="translate(6.028 0) rotate(90)" fill="#05568d"/>
              <rect id="矩形_361" data-name="矩形 361" width="2.725" height="0.568" transform="translate(0.568 0) rotate(90)" fill="#05568d"/>
            </g>
          </g>
        </g>
        <g id="组_378" data-name="组 378" transform="translate(5.735 32.671)">
          <rect id="矩形_362" data-name="矩形 362" width="32.3" height="14.615" transform="translate(1.51)" fill="#2b2b2b"/>
          <g id="组_375" data-name="组 375" transform="translate(0 1.094)">
            <rect id="矩形_363" data-name="矩形 363" width="35.319" height="13.521" fill="#2a75ae"/>
            <path id="路径_228" data-name="路径 228" d="M722.947,417.534H706.952l9.578-13.521h15.995Z" transform="translate(-706.952 -404.013)" fill="#fff" opacity="0.1"/>
            <path id="路径_229" data-name="路径 229" d="M761.3,417.534h-3.623l7.574-13.521h3.623Z" transform="translate(-733.553 -404.013)" fill="#fff" opacity="0.1"/>
            <rect id="矩形_364" data-name="矩形 364" width="35.319" height="0.757" transform="translate(0 2.816)" fill="#4298c7"/>
            <rect id="矩形_365" data-name="矩形 365" width="0.873" height="13.521" transform="translate(10.504)" fill="#4298c7"/>
            <rect id="矩形_366" data-name="矩形 366" width="0.873" height="13.521" transform="translate(23.942)" fill="#4298c7"/>
          </g>
          <g id="组_376" data-name="组 376" transform="translate(2.592 1.094)">
            <rect id="矩形_367" data-name="矩形 367" width="4.646" height="13.521" fill="#2a75ae"/>
            <rect id="矩形_368" data-name="矩形 368" width="4.646" height="0.757" transform="translate(0 2.816)" fill="#4298c7"/>
            <rect id="矩形_369" data-name="矩形 369" width="1.359" height="13.521" fill="#204152" opacity="0.2"/>
          </g>
          <g id="组_377" data-name="组 377" transform="translate(27.99 1.094)">
            <rect id="矩形_370" data-name="矩形 370" width="4.646" height="13.521" fill="#2a75ae"/>
            <rect id="矩形_371" data-name="矩形 371" width="4.646" height="0.757" transform="translate(0 2.816)" fill="#4298c7"/>
            <rect id="矩形_372" data-name="矩形 372" width="1.359" height="13.521" fill="#204152" opacity="0.2"/>
          </g>
        </g>
      </g>
    </g>
    <g id="logo" transform="translate(24.486 3.015)">
      <path id="路径_34" data-name="路径 34" d="M79.461,738.156A13.521,13.521,0,1,1,65.94,724.635,13.521,13.521,0,0,1,79.461,738.156Z" transform="translate(-52.419 -724.634)" fill="#fff"/>
      <g id="组_23" data-name="组 23" transform="translate(1.238 13.205)">
        <path id="路径_35" data-name="路径 35" d="M80.8,771.118a13.331,13.331,0,0,1-24.538.158H66.881l3.724-5.482s.2-.343.442-.049,4.468,5.44,4.468,5.44l5.288-.066" transform="translate(-56.264 -765.625)" fill="#7db33d"/>
        <path id="路径_36" data-name="路径 36" d="M80.8,771.118a13.331,13.331,0,0,1-24.538.158H66.881l3.724-5.482s.2-.343.442-.049,4.468,5.44,4.468,5.44l5.288-.066" transform="translate(-56.264 -765.625)" fill="#7db33d" stroke="#85c538" stroke-width="0.311"/>
      </g>
      <path id="路径_37" data-name="路径 37" d="M79.334,741.021a13.326,13.326,0,1,0-26.452-2.3q0,.245.009.49h4.646l5.291-8.034s.2-.589.784-.1a11.18,11.18,0,0,1,1.225,1.274L59.3,740.481H52.883l.146.882h6.712l8.279-12.346a.494.494,0,0,1,.882-.1c.539.588,9.112,12.15,9.112,12.15Z" transform="translate(-52.733 -725.149)" fill="#007dc6"/>
      <path id="路径_38" data-name="路径 38" d="M79.334,741.021a13.326,13.326,0,1,0-26.452-2.3q0,.245.009.49h4.646l5.291-8.034s.2-.589.784-.1a11.18,11.18,0,0,1,1.225,1.274L59.3,740.481H52.883l.146.882h6.712l8.279-12.346a.494.494,0,0,1,.882-.1c.539.588,9.112,12.15,9.112,12.15Z" transform="translate(-52.733 -725.149)" fill="none" stroke="#338bbc" stroke-width="0.311"/>
      <g id="组_24" data-name="组 24" transform="translate(0.59 7.874)">
        <path id="路径_39" data-name="路径 39" d="M54.251,758.25H63.02l5.974-9.014s.294-.392.685.049,7.1,8.769,7.1,8.769l.225.225h3.058l-.2.56H76.688l-7.153-8.574s-.2-.392-.49.1-5.478,8.477-5.478,8.477H54.457Z" transform="translate(-54.251 -749.075)" fill="#7db33d"/>
        <path id="路径_40" data-name="路径 40" d="M54.251,758.25H63.02l5.974-9.014s.294-.392.685.049,7.1,8.769,7.1,8.769l.225.225h3.058l-.2.56H76.688l-7.153-8.574s-.2-.392-.49.1-5.478,8.477-5.478,8.477H54.457Z" transform="translate(-54.251 -749.075)" fill="#7db33d" stroke="#85c538" stroke-width="0.311"/>
      </g>
    </g>
  </g>
</svg>
