<svg xmlns="http://www.w3.org/2000/svg" width="22.886" height="22.886" viewBox="0 0 22.886 22.886">
  <path id="rss" d="M19.534,0H3.352A3.356,3.356,0,0,0,0,3.352V19.534a3.356,3.356,0,0,0,3.352,3.352H19.534a3.356,3.356,0,0,0,3.352-3.352V3.352A3.356,3.356,0,0,0,19.534,0ZM4.746,19.953a1.969,1.969,0,1,1,1.969-1.969A1.972,1.972,0,0,1,4.746,19.953Zm6.662-.362A1.79,1.79,0,0,1,9.62,17.8a4.7,4.7,0,0,0-4.693-4.693,1.788,1.788,0,0,1,0-3.576A8.279,8.279,0,0,1,13.2,17.8,1.79,1.79,0,0,1,11.408,19.591Zm6.7,0A1.79,1.79,0,0,1,16.325,17.8,11.4,11.4,0,0,0,4.926,6.4a1.788,1.788,0,1,1,0-3.576A14.876,14.876,0,0,1,15.515,7.214,14.876,14.876,0,0,1,19.9,17.8,1.79,1.79,0,0,1,18.113,19.591Z" transform="translate(0 0)" fill="#ea7819"/>
</svg>
