<svg xmlns="http://www.w3.org/2000/svg" width="56.304" height="56.617" viewBox="0 0 56.304 56.617">
  <g id="Vendor" transform="translate(-239.666 -71.125)">
    <path id="路径_230" data-name="路径 230" d="M245.2,222.766a25.13,25.13,0,0,1,.829-15.015,28.891,28.891,0,0,1,1.013,15.015Z" transform="translate(-3.382 -97.143)" fill="#466922"/>
    <path id="路径_231" data-name="路径 231" d="M413.159,227.92a18.768,18.768,0,0,1,.829-12.92A21.645,21.645,0,0,1,415,227.92Z" transform="translate(-122.804 -102.298)" fill="#466922"/>
    <path id="路径_232" data-name="路径 232" d="M422.508,233.223a14.8,14.8,0,0,1,.733-10.765,17.1,17.1,0,0,1,.9,10.765Z" transform="translate(-129.516 -107.6)" fill="#527a28"/>
    <path id="路径_233" data-name="路径 233" d="M253.592,230.794a19.807,19.807,0,0,1,.644-11.752,22.77,22.77,0,0,1,.787,11.752Z" transform="translate(-9.472 -105.172)" fill="#527a28"/>
    <g id="组_382" data-name="组 382" transform="translate(239.666 118.956)">
      <path id="路径_234" data-name="路径 234" d="M240.406,236.879a1.75,1.75,0,0,1,1.786,1.432,1.1,1.1,0,0,1,.545-.134,1.04,1.04,0,0,1,1.07,1.006h1.835a.691.691,0,1,1,1.381,0h.159a1.311,1.311,0,1,1,2.591,0h3.218a1.634,1.634,0,0,1,1.682-1.589,1.724,1.724,0,0,1,.848.207,1.743,1.743,0,0,1,.379-.569l.079-.079a1.8,1.8,0,0,1,2.471,0l.273.354a1.743,1.743,0,0,1,.239.882l-.062.465a1.791,1.791,0,0,1-.132.33H261.3a1.093,1.093,0,0,1,1.113-.874,1.115,1.115,0,0,1,.77.279,1.1,1.1,0,0,1,1.136-.994,1.174,1.174,0,0,1,1.091,1.589h1.415a1.154,1.154,0,1,1,2.3,0H272.1a1.161,1.161,0,0,1,1.982,0h2.307a1.152,1.152,0,1,1,2.3,0h2.482a1.132,1.132,0,0,1-.026-.238,1.325,1.325,0,0,1,.349-.842,1.2,1.2,0,0,1,.842-.349,1.241,1.241,0,0,1,.842.349l.079.079a1.225,1.225,0,0,1,.309.549,1.1,1.1,0,0,1,.835-.342,1.087,1.087,0,0,1,1.091.794h4.332a1.087,1.087,0,0,1,1.091-.794.566.566,0,0,0,.984-.525,1.239,1.239,0,0,1,.843-.349h.079a1.23,1.23,0,0,1,.842.349,1.325,1.325,0,0,1,.349.843,1.431,1.431,0,0,1-.1.477h2.061v4.124h-56.3v-6.291A1.961,1.961,0,0,1,240.406,236.879Z" transform="translate(-239.666 -236.639)" fill="#64942f"/>
      <g id="组_381" data-name="组 381" transform="translate(0.609 1.692)">
        <path id="路径_235" data-name="路径 235" d="M410.726,247.992a.636.636,0,0,0,0,1.271A.636.636,0,0,0,410.726,247.992Z" transform="translate(-361.465 -246.403)" fill="#5b872b"/>
        <path id="路径_236" data-name="路径 236" d="M416.943,248.679a.159.159,0,0,0,0,.318A.159.159,0,0,0,416.943,248.679Z" transform="translate(-366.213 -246.892)" fill="#5b872b"/>
        <path id="路径_237" data-name="路径 237" d="M383.461,253.4l-.04.04a.159.159,0,0,0,.225.225l.04-.04A.159.159,0,0,0,383.461,253.4Z" transform="translate(-342.454 -250.214)" fill="#5b872b"/>
        <path id="路径_238" data-name="路径 238" d="M387.462,254.864a.2.2,0,0,0,0,.4A.2.2,0,0,0,387.462,254.864Z" transform="translate(-345.224 -251.29)" fill="#5b872b"/>
        <path id="路径_239" data-name="路径 239" d="M389.028,248.954a.4.4,0,0,0,0,.794A.4.4,0,0,0,389.028,248.954Z" transform="translate(-346.201 -247.087)" fill="#5b872b"/>
        <path id="路径_240" data-name="路径 240" d="M341.914,251.428a.4.4,0,0,0,0,.794A.4.4,0,0,0,341.914,251.428Z" transform="translate(-312.703 -248.847)" fill="#5b872b"/>
        <path id="路径_241" data-name="路径 241" d="M353.494,255.42a.434.434,0,0,0-.2-.26.453.453,0,0,0-.3-.051l-.033.006h-.008a.4.4,0,0,0-.334.3.475.475,0,0,0,.11.432.453.453,0,0,0,.325.135.489.489,0,0,0,.321-.132A.461.461,0,0,0,353.494,255.42Z" transform="translate(-320.583 -251.459)" fill="#5b872b"/>
        <path id="路径_242" data-name="路径 242" d="M356.07,249.916a.4.4,0,0,0,0,.794A.4.4,0,0,0,356.07,249.916Z" transform="translate(-322.768 -247.771)" fill="#5b872b"/>
        <path id="路径_243" data-name="路径 243" d="M335.319,249.779a.516.516,0,0,0,0,1.032A.516.516,0,0,0,335.319,249.779Z" transform="translate(-307.931 -247.674)" fill="#5b872b"/>
        <path id="路径_244" data-name="路径 244" d="M345.411,249.229a.293.293,0,0,0,0,.586A.293.293,0,0,0,345.411,249.229Z" transform="translate(-315.26 -247.283)" fill="#5b872b"/>
        <path id="路径_245" data-name="路径 245" d="M342.625,255.414a.4.4,0,0,0,0,.794A.4.4,0,0,0,342.625,255.414Z" transform="translate(-313.208 -251.681)" fill="#5b872b"/>
        <path id="路径_246" data-name="路径 246" d="M293.73,243.594h-.04a.4.4,0,1,0,0,.794h.04a.4.4,0,0,0,0-.794Z" transform="translate(-278.405 -243.276)" fill="#5b872b"/>
        <path id="路径_247" data-name="路径 247" d="M301.367,242.495a.2.2,0,0,0,0,.4A.2.2,0,0,0,301.367,242.495Z" transform="translate(-284.009 -242.495)" fill="#5b872b"/>
        <path id="路径_248" data-name="路径 248" d="M300.6,247.992a.4.4,0,0,0,0,.794A.4.4,0,0,0,300.6,247.992Z" transform="translate(-283.325 -246.403)" fill="#5b872b"/>
        <path id="路径_249" data-name="路径 249" d="M266.281,249.916h-.021a.208.208,0,0,0,0,.416h.021a.208.208,0,0,0,0-.416Z" transform="translate(-259.036 -247.771)" fill="#5b872b"/>
        <path id="路径_250" data-name="路径 250" d="M254.527,255.276a.4.4,0,0,0,0,.794A.4.4,0,0,0,254.527,255.276Z" transform="translate(-250.569 -251.583)" fill="#5b872b"/>
        <path id="路径_251" data-name="路径 251" d="M242.158,245.244a.4.4,0,0,0,0,.794A.4.4,0,0,0,242.158,245.244Z" transform="translate(-241.774 -244.45)" fill="#5b872b"/>
        <path id="路径_252" data-name="路径 252" d="M244.967,247.717a.318.318,0,0,0,0,.635A.318.318,0,0,0,244.967,247.717Z" transform="translate(-243.826 -246.208)" fill="#5b872b"/>
        <path id="路径_253" data-name="路径 253" d="M277.2,255.688a.4.4,0,0,0-.4.4v.04a.4.4,0,1,0,.794,0v-.04A.4.4,0,0,0,277.2,255.688Z" transform="translate(-266.68 -251.875)" fill="#5b872b"/>
      </g>
    </g>
    <rect id="矩形_373" data-name="矩形 373" width="56.304" height="2.119" transform="translate(239.666 125.622)" fill="#80b407"/>
    <g id="组_409" data-name="组 409" transform="translate(245.394 71.125)">
      <g id="组_384" data-name="组 384">
        <path id="路径_254" data-name="路径 254" d="M259.488,125.622V78.037L280.1,71.125v54.5Z" transform="translate(-259.488 -71.125)" fill="#1c5078"/>
        <path id="路径_255" data-name="路径 255" d="M259.488,130.3V84.62L280.1,77.708V130.3Z" transform="translate(-259.488 -75.806)" fill="#2a75ae"/>
        <g id="组_383" data-name="组 383" transform="translate(0 3.588)">
          <path id="路径_256" data-name="路径 256" d="M312.284,84.437H304.75l2.507-.9h5.028Z" transform="translate(-291.67 -83.542)" fill="#4298c7"/>
          <rect id="矩形_374" data-name="矩形 374" width="20.614" height="0.895" transform="translate(0 6.377)" fill="#4298c7"/>
          <rect id="矩形_375" data-name="矩形 375" width="20.614" height="0.895" transform="translate(0 12.754)" fill="#4298c7"/>
          <rect id="矩形_376" data-name="矩形 376" width="20.614" height="0.895" transform="translate(0 19.131)" fill="#4298c7"/>
          <rect id="矩形_377" data-name="矩形 377" width="20.614" height="0.895" transform="translate(0 25.508)" fill="#4298c7"/>
          <rect id="矩形_378" data-name="矩形 378" width="20.614" height="0.895" transform="translate(0 31.885)" fill="#4298c7"/>
          <rect id="矩形_379" data-name="矩形 379" width="20.614" height="0.895" transform="translate(0 38.262)" fill="#4298c7"/>
          <rect id="矩形_380" data-name="矩形 380" width="20.614" height="0.895" transform="translate(0 44.639)" fill="#4298c7"/>
        </g>
        <path id="路径_257" data-name="路径 257" d="M259.488,99.728l2.869-.983v46.516h-2.869Z" transform="translate(-259.488 -90.763)" fill="#204152" opacity="0.2"/>
        <path id="路径_258" data-name="路径 258" d="M280.1,93.452l-20.614,11.933V84.77L280.1,77.708Z" transform="translate(-259.488 -75.806)" fill="#fff" opacity="0.1"/>
        <path id="路径_259" data-name="路径 259" d="M280.1,166.964,259.488,178.9V175L280.1,163.063Z" transform="translate(-259.488 -136.494)" fill="#fff" opacity="0.1"/>
        <path id="路径_260" data-name="路径 260" d="M280.1,192.043l-20.614,11.933v-7.73L280.1,184.313Z" transform="translate(-259.488 -151.603)" fill="#fff" opacity="0.1"/>
        <path id="路径_261" data-name="路径 261" d="M294.241,138.289h-1.252V89.36l1.252-.42Z" transform="translate(-283.307 -83.792)" fill="#eef7fc"/>
      </g>
      <g id="组_408" data-name="组 408" transform="translate(20.614 10.861)">
        <rect id="矩形_381" data-name="矩形 381" width="24.178" height="41.393" transform="translate(0 2.243)" fill="#fff"/>
        <rect id="矩形_382" data-name="矩形 382" width="24.178" height="2.243" fill="#b4d4e9"/>
        <rect id="矩形_383" data-name="矩形 383" width="1.847" height="43.637" fill="#335582" opacity="0.2"/>
        <rect id="矩形_384" data-name="矩形 384" width="17.772" height="9.416" transform="translate(2.938 34.221)" fill="#b4d4e9"/>
        <g id="组_385" data-name="组 385" transform="translate(3.901 35.331)">
          <rect id="矩形_385" data-name="矩形 385" width="15.846" height="8.306" transform="translate(0 0)" fill="#365784"/>
          <path id="路径_262" data-name="路径 262" d="M350.075,239.272h-5.753l4-8.306h5.753Z" transform="translate(-344.322 -230.966)" fill="#f0f5f9" opacity="0.1"/>
          <path id="路径_263" data-name="路径 263" d="M380.583,239.272h-1.915l4-8.306h1.915Z" transform="translate(-368.742 -230.966)" fill="#f0f5f9" opacity="0.1"/>
          <rect id="矩形_386" data-name="矩形 386" width="15.846" height="0.401" transform="translate(0 1.489)" fill="#223752"/>
          <rect id="矩形_387" data-name="矩形 387" width="8.306" height="0.462" transform="translate(5.153 0) rotate(90)" fill="#223752"/>
          <rect id="矩形_388" data-name="矩形 388" width="8.306" height="0.462" transform="translate(11.154 0) rotate(90)" fill="#223752"/>
        </g>
        <g id="组_407" data-name="组 407" transform="translate(3.901 5.704)">
          <g id="组_406" data-name="组 406">
            <g id="组_395" data-name="组 395">
              <g id="组_386" data-name="组 386">
                <rect id="矩形_389" data-name="矩形 389" width="6.556" height="1.184" fill="#365784"/>
              </g>
              <g id="组_387" data-name="组 387" transform="translate(0 3.113)">
                <rect id="矩形_390" data-name="矩形 390" width="6.556" height="1.184" fill="#365784"/>
              </g>
              <g id="组_388" data-name="组 388" transform="translate(0 6.225)">
                <rect id="矩形_391" data-name="矩形 391" width="6.556" height="1.184" fill="#365784"/>
              </g>
              <g id="组_389" data-name="组 389" transform="translate(0 9.338)">
                <rect id="矩形_392" data-name="矩形 392" width="6.556" height="1.184" fill="#365784"/>
              </g>
              <g id="组_390" data-name="组 390" transform="translate(0 12.45)">
                <rect id="矩形_393" data-name="矩形 393" width="6.556" height="1.184" fill="#365784"/>
              </g>
              <g id="组_391" data-name="组 391" transform="translate(0 15.563)">
                <rect id="矩形_394" data-name="矩形 394" width="6.556" height="1.184" fill="#365784"/>
              </g>
              <g id="组_392" data-name="组 392" transform="translate(0 18.675)">
                <rect id="矩形_395" data-name="矩形 395" width="6.556" height="1.184" fill="#365784"/>
              </g>
              <g id="组_393" data-name="组 393" transform="translate(0 21.788)">
                <rect id="矩形_396" data-name="矩形 396" width="6.556" height="1.184" fill="#365784"/>
              </g>
              <g id="组_394" data-name="组 394" transform="translate(0 24.9)">
                <rect id="矩形_397" data-name="矩形 397" width="6.556" height="1.184" fill="#365784"/>
              </g>
            </g>
            <g id="组_405" data-name="组 405" transform="translate(9.29)">
              <g id="组_396" data-name="组 396">
                <rect id="矩形_398" data-name="矩形 398" width="6.556" height="1.184" fill="#365784"/>
              </g>
              <g id="组_397" data-name="组 397" transform="translate(0 3.113)">
                <rect id="矩形_399" data-name="矩形 399" width="6.556" height="1.184" fill="#365784"/>
              </g>
              <g id="组_398" data-name="组 398" transform="translate(0 6.225)">
                <rect id="矩形_400" data-name="矩形 400" width="6.556" height="1.184" fill="#365784"/>
              </g>
              <g id="组_399" data-name="组 399" transform="translate(0 9.338)">
                <rect id="矩形_401" data-name="矩形 401" width="6.556" height="1.184" fill="#365784"/>
              </g>
              <g id="组_400" data-name="组 400" transform="translate(0 12.45)">
                <rect id="矩形_402" data-name="矩形 402" width="6.556" height="1.184" fill="#365784"/>
              </g>
              <g id="组_401" data-name="组 401" transform="translate(0 15.563)">
                <rect id="矩形_403" data-name="矩形 403" width="6.556" height="1.184" fill="#365784"/>
              </g>
              <g id="组_402" data-name="组 402" transform="translate(0 18.675)">
                <rect id="矩形_404" data-name="矩形 404" width="6.556" height="1.184" fill="#365784"/>
              </g>
              <g id="组_403" data-name="组 403" transform="translate(0 21.788)">
                <rect id="矩形_405" data-name="矩形 405" width="6.556" height="1.184" fill="#365784"/>
              </g>
              <g id="组_404" data-name="组 404" transform="translate(0 24.9)">
                <rect id="矩形_406" data-name="矩形 406" width="6.556" height="1.184" fill="#365784"/>
              </g>
            </g>
          </g>
        </g>
      </g>
    </g>
  </g>
</svg>
